G04*
G04 #@! TF.GenerationSoftware,Altium Limited,Altium Designer,24.2.2 (26)*
G04*
G04 Layer_Color=8388736*
%FSLAX25Y25*%
%MOIN*%
G70*
G04*
G04 #@! TF.SameCoordinates,C094F21F-3D64-4DBD-B291-BB1914DD33BA*
G04*
G04*
G04 #@! TF.FilePolarity,Negative*
G04*
G01*
G75*
%ADD15R,0.07087X0.02165*%
%ADD16O,0.07087X0.02165*%
%ADD17R,0.04724X0.05906*%
%ADD18R,0.05906X0.04724*%
%ADD19R,0.09055X0.06299*%
%ADD20R,0.05512X0.03347*%
%ADD21C,0.06496*%
%ADD22R,0.06496X0.06496*%
%ADD23C,0.06693*%
%ADD24R,0.06693X0.06693*%
%ADD25R,0.07480X0.07480*%
%ADD26C,0.07480*%
%ADD27R,0.07480X0.07480*%
%ADD28C,0.24410*%
%ADD29C,0.03937*%
D15*
X108208Y216643D02*
D03*
X83392Y39157D02*
D03*
D16*
X108208Y219202D02*
D03*
Y221761D02*
D03*
Y224320D02*
D03*
Y226880D02*
D03*
Y229439D02*
D03*
Y231998D02*
D03*
Y234557D02*
D03*
X84192Y216643D02*
D03*
Y219202D02*
D03*
Y221761D02*
D03*
Y224320D02*
D03*
Y226880D02*
D03*
Y229439D02*
D03*
Y231998D02*
D03*
Y234557D02*
D03*
X83392Y36598D02*
D03*
Y34039D02*
D03*
Y31480D02*
D03*
Y28920D02*
D03*
Y26361D02*
D03*
Y23802D02*
D03*
Y21243D02*
D03*
X107408Y39157D02*
D03*
Y36598D02*
D03*
Y34039D02*
D03*
Y31480D02*
D03*
Y28920D02*
D03*
Y26361D02*
D03*
Y23802D02*
D03*
Y21243D02*
D03*
D17*
X134263Y91700D02*
D03*
X142137D02*
D03*
X133863Y113000D02*
D03*
X141737D02*
D03*
X101263Y67600D02*
D03*
X109137D02*
D03*
X81963Y67500D02*
D03*
X89837D02*
D03*
X180037Y57900D02*
D03*
X172163D02*
D03*
X99163Y48200D02*
D03*
X107037D02*
D03*
X194600Y231500D02*
D03*
X186726D02*
D03*
X194937Y213500D02*
D03*
X187063D02*
D03*
X79126Y198400D02*
D03*
X87000D02*
D03*
X105437Y189300D02*
D03*
X97563D02*
D03*
X141937Y169000D02*
D03*
X134063D02*
D03*
Y146300D02*
D03*
X141937D02*
D03*
D18*
X262100Y80963D02*
D03*
Y88837D02*
D03*
X202286Y50012D02*
D03*
Y57886D02*
D03*
X186000Y89200D02*
D03*
Y81326D02*
D03*
X187800Y175063D02*
D03*
Y182937D02*
D03*
X172800Y175263D02*
D03*
Y183137D02*
D03*
X171900Y89200D02*
D03*
Y81326D02*
D03*
D19*
X193527Y106284D02*
D03*
X157700D02*
D03*
Y124000D02*
D03*
X193527D02*
D03*
X157287Y161658D02*
D03*
X193113D02*
D03*
Y143942D02*
D03*
X157287D02*
D03*
D20*
X224676Y83860D02*
D03*
Y91340D02*
D03*
X235124Y87600D02*
D03*
D21*
X241800Y38458D02*
D03*
D22*
Y58143D02*
D03*
D23*
X121700Y121100D02*
D03*
X91700D02*
D03*
X81700D02*
D03*
X111700D02*
D03*
X121700Y91513D02*
D03*
X111700D02*
D03*
X101700D02*
D03*
X91700D02*
D03*
X101700Y121100D02*
D03*
X102100Y175800D02*
D03*
X92100Y146213D02*
D03*
X102100D02*
D03*
X112100D02*
D03*
X122100D02*
D03*
X112100Y175800D02*
D03*
X82100D02*
D03*
X92100D02*
D03*
X122100D02*
D03*
D24*
X81700Y91513D02*
D03*
X82100Y146213D02*
D03*
D25*
X62200Y209600D02*
D03*
X302200D02*
D03*
D26*
X52200D02*
D03*
X62200Y199600D02*
D03*
X52200D02*
D03*
X62200Y189600D02*
D03*
X52200D02*
D03*
X62200Y179600D02*
D03*
X52200D02*
D03*
X62200Y169600D02*
D03*
X52200D02*
D03*
X62200Y159600D02*
D03*
X52200D02*
D03*
X62200Y149600D02*
D03*
X52200D02*
D03*
X62200Y139600D02*
D03*
X52200D02*
D03*
X62200Y129600D02*
D03*
X52200D02*
D03*
X62200Y119600D02*
D03*
X52200D02*
D03*
X62200Y109600D02*
D03*
X52200D02*
D03*
X62200Y99600D02*
D03*
X52200D02*
D03*
X62200Y89600D02*
D03*
X52200D02*
D03*
X62200Y79600D02*
D03*
X52200D02*
D03*
X62200Y69600D02*
D03*
X52200D02*
D03*
X62200Y59600D02*
D03*
X52200D02*
D03*
X62200Y49600D02*
D03*
X52200D02*
D03*
X62200Y39600D02*
D03*
X52200D02*
D03*
X62200Y29600D02*
D03*
X52200D02*
D03*
X292200Y209600D02*
D03*
X302200Y199600D02*
D03*
X292200D02*
D03*
X302200Y189600D02*
D03*
X292200D02*
D03*
X302200Y179600D02*
D03*
X292200D02*
D03*
X302200Y169600D02*
D03*
X292200D02*
D03*
X302200Y159600D02*
D03*
X292200D02*
D03*
X302200Y149600D02*
D03*
X292200D02*
D03*
X302200Y139600D02*
D03*
X292200D02*
D03*
X302200Y129600D02*
D03*
X292200D02*
D03*
X302200Y119600D02*
D03*
X292200D02*
D03*
X302200Y109600D02*
D03*
X292200D02*
D03*
X302200Y99600D02*
D03*
X292200D02*
D03*
X302200Y89600D02*
D03*
X292200D02*
D03*
X302200Y79600D02*
D03*
X292200D02*
D03*
X302200Y69600D02*
D03*
X292200D02*
D03*
X302200Y59600D02*
D03*
X292200D02*
D03*
X302200Y49600D02*
D03*
X292200D02*
D03*
X302200Y39600D02*
D03*
X292200D02*
D03*
X302200Y29600D02*
D03*
X292200D02*
D03*
Y19600D02*
D03*
X302200D02*
D03*
X52200D02*
D03*
X62200D02*
D03*
X208900Y200900D02*
D03*
Y210900D02*
D03*
Y220900D02*
D03*
Y190900D02*
D03*
Y180900D02*
D03*
Y170900D02*
D03*
Y160900D02*
D03*
Y150900D02*
D03*
Y140900D02*
D03*
Y130900D02*
D03*
Y120900D02*
D03*
X268900Y120900D02*
D03*
Y130900D02*
D03*
Y140900D02*
D03*
Y150900D02*
D03*
Y160900D02*
D03*
Y170900D02*
D03*
Y180900D02*
D03*
Y190900D02*
D03*
Y230900D02*
D03*
Y220900D02*
D03*
Y210900D02*
D03*
Y200900D02*
D03*
D27*
X208900Y230900D02*
D03*
D28*
X20000Y210000D02*
D03*
X335000D02*
D03*
Y20000D02*
D03*
X20000D02*
D03*
D29*
X192400Y132400D02*
D03*
X156900Y153500D02*
D03*
X258901Y112799D02*
D03*
X201999D02*
D03*
X193300Y152800D02*
D03*
X297300Y227900D02*
D03*
X92263Y201963D02*
D03*
X159600Y41100D02*
D03*
X141100Y237200D02*
D03*
X84200Y240600D02*
D03*
X252800Y88700D02*
D03*
X163900Y209300D02*
D03*
X102100Y202123D02*
D03*
X117700Y222200D02*
D03*
X178200Y105200D02*
D03*
X224300Y100100D02*
D03*
X234800Y79900D02*
D03*
X157700Y113700D02*
D03*
X185300Y69500D02*
D03*
X70000Y55100D02*
D03*
X85100Y17100D02*
D03*
X193500Y20800D02*
D03*
X131600Y40000D02*
D03*
X90200Y33100D02*
D03*
X97200Y32500D02*
D03*
X90747Y27701D02*
D03*
X136600Y40500D02*
D03*
Y17100D02*
D03*
X117500Y25400D02*
D03*
X120119Y28619D02*
D03*
X141600Y21935D02*
D03*
X117200Y21100D02*
D03*
X151700Y40000D02*
D03*
X151800Y28900D02*
D03*
X146400Y25400D02*
D03*
X146600Y40400D02*
D03*
X141500D02*
D03*
X165100Y36600D02*
D03*
X115500Y36800D02*
D03*
X156100Y178100D02*
D03*
X80300Y54600D02*
D03*
X115000Y67000D02*
D03*
X156600Y79000D02*
D03*
X139100Y83500D02*
D03*
X151000Y179500D02*
D03*
X99700Y221800D02*
D03*
X75200Y215800D02*
D03*
X90000Y60200D02*
D03*
X144600Y102000D02*
D03*
X146100Y234700D02*
D03*
X151100Y229500D02*
D03*
X84500Y210930D02*
D03*
X155700Y220100D02*
D03*
X75200Y236900D02*
D03*
X77600Y229500D02*
D03*
X146300Y176300D02*
D03*
X141600Y156600D02*
D03*
M02*
