G04*
G04 #@! TF.GenerationSoftware,Altium Limited,Altium Designer,24.2.2 (26)*
G04*
G04 Layer_Color=16711935*
%FSLAX25Y25*%
%MOIN*%
G70*
G04*
G04 #@! TF.SameCoordinates,C094F21F-3D64-4DBD-B291-BB1914DD33BA*
G04*
G04*
G04 #@! TF.FilePolarity,Negative*
G04*
G01*
G75*
%ADD17R,0.04724X0.05906*%
%ADD18R,0.05906X0.04724*%
%ADD21C,0.06496*%
%ADD22R,0.06496X0.06496*%
%ADD23C,0.06693*%
%ADD24R,0.06693X0.06693*%
%ADD25R,0.07480X0.07480*%
%ADD26C,0.07480*%
%ADD27R,0.07480X0.07480*%
%ADD28C,0.24410*%
%ADD29C,0.03937*%
G04:AMPARAMS|DCode=48|XSize=105.28mil|YSize=32.37mil|CornerRadius=16.18mil|HoleSize=0mil|Usage=FLASHONLY|Rotation=90.000|XOffset=0mil|YOffset=0mil|HoleType=Round|Shape=RoundedRectangle|*
%AMROUNDEDRECTD48*
21,1,0.10528,0.00000,0,0,90.0*
21,1,0.07291,0.03237,0,0,90.0*
1,1,0.03237,0.00000,0.03646*
1,1,0.03237,0.00000,-0.03646*
1,1,0.03237,0.00000,-0.03646*
1,1,0.03237,0.00000,0.03646*
%
%ADD48ROUNDEDRECTD48*%
%ADD49R,0.03237X0.10528*%
D17*
X118063Y103400D02*
D03*
X125937D02*
D03*
X99663Y103600D02*
D03*
X107537D02*
D03*
X81663Y103100D02*
D03*
X89537D02*
D03*
X128374Y157000D02*
D03*
X120500D02*
D03*
X101663Y157200D02*
D03*
X109537D02*
D03*
X82137Y157400D02*
D03*
X90011D02*
D03*
D18*
X74700Y209837D02*
D03*
Y201963D02*
D03*
X175500Y137326D02*
D03*
Y145200D02*
D03*
D21*
X241800Y38458D02*
D03*
D22*
Y58143D02*
D03*
D23*
X121700Y121100D02*
D03*
X91700D02*
D03*
X81700D02*
D03*
X111700D02*
D03*
X121700Y91513D02*
D03*
X111700D02*
D03*
X101700D02*
D03*
X91700D02*
D03*
X101700Y121100D02*
D03*
X102100Y175800D02*
D03*
X92100Y146213D02*
D03*
X102100D02*
D03*
X112100D02*
D03*
X122100D02*
D03*
X112100Y175800D02*
D03*
X82100D02*
D03*
X92100D02*
D03*
X122100D02*
D03*
D24*
X81700Y91513D02*
D03*
X82100Y146213D02*
D03*
D25*
X62200Y209600D02*
D03*
X302200D02*
D03*
D26*
X52200D02*
D03*
X62200Y199600D02*
D03*
X52200D02*
D03*
X62200Y189600D02*
D03*
X52200D02*
D03*
X62200Y179600D02*
D03*
X52200D02*
D03*
X62200Y169600D02*
D03*
X52200D02*
D03*
X62200Y159600D02*
D03*
X52200D02*
D03*
X62200Y149600D02*
D03*
X52200D02*
D03*
X62200Y139600D02*
D03*
X52200D02*
D03*
X62200Y129600D02*
D03*
X52200D02*
D03*
X62200Y119600D02*
D03*
X52200D02*
D03*
X62200Y109600D02*
D03*
X52200D02*
D03*
X62200Y99600D02*
D03*
X52200D02*
D03*
X62200Y89600D02*
D03*
X52200D02*
D03*
X62200Y79600D02*
D03*
X52200D02*
D03*
X62200Y69600D02*
D03*
X52200D02*
D03*
X62200Y59600D02*
D03*
X52200D02*
D03*
X62200Y49600D02*
D03*
X52200D02*
D03*
X62200Y39600D02*
D03*
X52200D02*
D03*
X62200Y29600D02*
D03*
X52200D02*
D03*
X292200Y209600D02*
D03*
X302200Y199600D02*
D03*
X292200D02*
D03*
X302200Y189600D02*
D03*
X292200D02*
D03*
X302200Y179600D02*
D03*
X292200D02*
D03*
X302200Y169600D02*
D03*
X292200D02*
D03*
X302200Y159600D02*
D03*
X292200D02*
D03*
X302200Y149600D02*
D03*
X292200D02*
D03*
X302200Y139600D02*
D03*
X292200D02*
D03*
X302200Y129600D02*
D03*
X292200D02*
D03*
X302200Y119600D02*
D03*
X292200D02*
D03*
X302200Y109600D02*
D03*
X292200D02*
D03*
X302200Y99600D02*
D03*
X292200D02*
D03*
X302200Y89600D02*
D03*
X292200D02*
D03*
X302200Y79600D02*
D03*
X292200D02*
D03*
X302200Y69600D02*
D03*
X292200D02*
D03*
X302200Y59600D02*
D03*
X292200D02*
D03*
X302200Y49600D02*
D03*
X292200D02*
D03*
X302200Y39600D02*
D03*
X292200D02*
D03*
X302200Y29600D02*
D03*
X292200D02*
D03*
Y19600D02*
D03*
X302200D02*
D03*
X52200D02*
D03*
X62200D02*
D03*
X208900Y200900D02*
D03*
Y210900D02*
D03*
Y220900D02*
D03*
Y190900D02*
D03*
Y180900D02*
D03*
Y170900D02*
D03*
Y160900D02*
D03*
Y150900D02*
D03*
Y140900D02*
D03*
Y130900D02*
D03*
Y120900D02*
D03*
X268900Y120900D02*
D03*
Y130900D02*
D03*
Y140900D02*
D03*
Y150900D02*
D03*
Y160900D02*
D03*
Y170900D02*
D03*
Y180900D02*
D03*
Y190900D02*
D03*
Y230900D02*
D03*
Y220900D02*
D03*
Y210900D02*
D03*
Y200900D02*
D03*
D27*
X208900Y230900D02*
D03*
D28*
X20000Y210000D02*
D03*
X335000D02*
D03*
Y20000D02*
D03*
X20000D02*
D03*
D29*
X192400Y132400D02*
D03*
X156900Y153500D02*
D03*
X258901Y112799D02*
D03*
X201999D02*
D03*
X193300Y152800D02*
D03*
X297300Y227900D02*
D03*
X92263Y201963D02*
D03*
X159600Y41100D02*
D03*
X141100Y237200D02*
D03*
X84200Y240600D02*
D03*
X252800Y88700D02*
D03*
X163900Y209300D02*
D03*
X102100Y202123D02*
D03*
X117700Y222200D02*
D03*
X178200Y105200D02*
D03*
X224300Y100100D02*
D03*
X234800Y79900D02*
D03*
X157700Y113700D02*
D03*
X185300Y69500D02*
D03*
X70000Y55100D02*
D03*
X85100Y17100D02*
D03*
X193500Y20800D02*
D03*
X131600Y40000D02*
D03*
X90200Y33100D02*
D03*
X97200Y32500D02*
D03*
X90747Y27701D02*
D03*
X136600Y40500D02*
D03*
Y17100D02*
D03*
X117500Y25400D02*
D03*
X120119Y28619D02*
D03*
X141600Y21935D02*
D03*
X117200Y21100D02*
D03*
X151700Y40000D02*
D03*
X151800Y28900D02*
D03*
X146400Y25400D02*
D03*
X146600Y40400D02*
D03*
X141500D02*
D03*
X165100Y36600D02*
D03*
X115500Y36800D02*
D03*
X156100Y178100D02*
D03*
X80300Y54600D02*
D03*
X115000Y67000D02*
D03*
X156600Y79000D02*
D03*
X139100Y83500D02*
D03*
X151000Y179500D02*
D03*
X99700Y221800D02*
D03*
X75200Y215800D02*
D03*
X90000Y60200D02*
D03*
X144600Y102000D02*
D03*
X146100Y234700D02*
D03*
X151100Y229500D02*
D03*
X84500Y210930D02*
D03*
X155700Y220100D02*
D03*
X75200Y236900D02*
D03*
X77600Y229500D02*
D03*
X146300Y176300D02*
D03*
X141600Y156600D02*
D03*
D48*
X121500Y69800D02*
D03*
X126500D02*
D03*
X131500D02*
D03*
X136500D02*
D03*
X141500D02*
D03*
X146500D02*
D03*
X151500D02*
D03*
X156500D02*
D03*
Y50776D02*
D03*
X151500D02*
D03*
X146500D02*
D03*
X141500D02*
D03*
X136500D02*
D03*
X131500D02*
D03*
X126500D02*
D03*
X151000Y209800D02*
D03*
X146000D02*
D03*
X141000D02*
D03*
X136000D02*
D03*
X131000D02*
D03*
X126000D02*
D03*
X121000D02*
D03*
Y190776D02*
D03*
X126000D02*
D03*
X131000D02*
D03*
X136000D02*
D03*
X141000D02*
D03*
X146000D02*
D03*
X151000D02*
D03*
X156000D02*
D03*
D49*
X121500Y50776D02*
D03*
X156000Y209800D02*
D03*
M02*
