G04*
G04 #@! TF.GenerationSoftware,Altium Limited,Altium Designer,24.2.2 (26)*
G04*
G04 Layer_Physical_Order=2*
G04 Layer_Color=16711680*
%FSLAX25Y25*%
%MOIN*%
G70*
G04*
G04 #@! TF.SameCoordinates,C094F21F-3D64-4DBD-B291-BB1914DD33BA*
G04*
G04*
G04 #@! TF.FilePolarity,Positive*
G04*
G01*
G75*
%ADD13C,0.01000*%
%ADD23C,0.06693*%
%ADD24R,0.06693X0.06693*%
%ADD32R,0.03937X0.05118*%
%ADD33R,0.05118X0.03937*%
%ADD36C,0.01181*%
%ADD37C,0.02953*%
%ADD38C,0.01968*%
%ADD39C,0.05709*%
%ADD40R,0.05709X0.05709*%
%ADD41C,0.05906*%
%ADD42R,0.05906X0.05906*%
%ADD43R,0.06693X0.06693*%
%ADD44C,0.23622*%
%ADD45C,0.03150*%
G04:AMPARAMS|DCode=46|XSize=97.4mil|YSize=24.49mil|CornerRadius=12.25mil|HoleSize=0mil|Usage=FLASHONLY|Rotation=90.000|XOffset=0mil|YOffset=0mil|HoleType=Round|Shape=RoundedRectangle|*
%AMROUNDEDRECTD46*
21,1,0.09740,0.00000,0,0,90.0*
21,1,0.07291,0.02449,0,0,90.0*
1,1,0.02449,0.00000,0.03646*
1,1,0.02449,0.00000,-0.03646*
1,1,0.02449,0.00000,-0.03646*
1,1,0.02449,0.00000,0.03646*
%
%ADD46ROUNDEDRECTD46*%
%ADD47R,0.02449X0.09740*%
G36*
X314100Y11607D02*
X313600Y11400D01*
X40200D01*
Y253400D01*
X314100D01*
Y11607D01*
D02*
G37*
%LPC*%
G36*
X281435Y245387D02*
X77589D01*
X76968Y245264D01*
X76442Y244912D01*
X46116Y214586D01*
X45765Y214060D01*
X45641Y213439D01*
Y187555D01*
X45765Y186934D01*
X46116Y186408D01*
X49087Y183438D01*
X49145Y183399D01*
X49208Y182755D01*
X48722Y182269D01*
X48150Y181278D01*
X47854Y180172D01*
Y179028D01*
X48150Y177922D01*
X48722Y176931D01*
X49531Y176122D01*
X50522Y175550D01*
X51628Y175253D01*
X52772D01*
X53878Y175550D01*
X54869Y176122D01*
X55352Y176605D01*
X55996Y176542D01*
X56022Y176503D01*
X59071Y173453D01*
X59161Y173393D01*
X59225Y172749D01*
X58735Y172259D01*
X58164Y171272D01*
X57875Y170191D01*
X62200D01*
Y169600D01*
X62791D01*
Y165275D01*
X63872Y165564D01*
X64859Y166135D01*
X65053Y166329D01*
X65515Y166138D01*
Y163085D01*
X65053Y162893D01*
X64869Y163078D01*
X63878Y163650D01*
X62772Y163946D01*
X61628D01*
X60522Y163650D01*
X59531Y163078D01*
X58722Y162269D01*
X58150Y161278D01*
X57854Y160172D01*
Y159028D01*
X58150Y157922D01*
X58722Y156931D01*
X59531Y156122D01*
X60522Y155550D01*
X61628Y155254D01*
X62772D01*
X63878Y155550D01*
X64869Y156122D01*
X65053Y156307D01*
X65515Y156115D01*
Y153085D01*
X65053Y152893D01*
X64869Y153078D01*
X63878Y153650D01*
X62772Y153946D01*
X61628D01*
X60522Y153650D01*
X59531Y153078D01*
X58722Y152269D01*
X58150Y151278D01*
X57854Y150172D01*
Y149028D01*
X58150Y147922D01*
X58722Y146931D01*
X59531Y146122D01*
X60522Y145550D01*
X61628Y145254D01*
X62772D01*
X63878Y145550D01*
X64869Y146122D01*
X65053Y146307D01*
X65515Y146115D01*
Y143085D01*
X65053Y142894D01*
X64869Y143078D01*
X63878Y143650D01*
X62772Y143947D01*
X61628D01*
X60522Y143650D01*
X59531Y143078D01*
X58722Y142269D01*
X58150Y141278D01*
X57854Y140172D01*
Y139028D01*
X58150Y137922D01*
X58722Y136931D01*
X59531Y136122D01*
X60522Y135550D01*
X61628Y135254D01*
X62772D01*
X63878Y135550D01*
X64869Y136122D01*
X65053Y136307D01*
X65515Y136115D01*
Y133085D01*
X65053Y132894D01*
X64869Y133078D01*
X63878Y133650D01*
X62772Y133947D01*
X61628D01*
X60522Y133650D01*
X59531Y133078D01*
X58722Y132269D01*
X58150Y131278D01*
X57854Y130172D01*
Y129028D01*
X58150Y127922D01*
X58722Y126931D01*
X59531Y126122D01*
X60522Y125550D01*
X61628Y125253D01*
X62772D01*
X63878Y125550D01*
X64869Y126122D01*
X65053Y126306D01*
X65515Y126115D01*
Y123085D01*
X65053Y122894D01*
X64869Y123078D01*
X63878Y123650D01*
X62772Y123946D01*
X61628D01*
X60522Y123650D01*
X59531Y123078D01*
X58722Y122269D01*
X58150Y121278D01*
X57854Y120172D01*
Y119028D01*
X58150Y117922D01*
X58722Y116931D01*
X59531Y116122D01*
X60522Y115550D01*
X61628Y115253D01*
X62772D01*
X63878Y115550D01*
X64869Y116122D01*
X65053Y116306D01*
X65515Y116115D01*
Y113085D01*
X65053Y112893D01*
X64869Y113078D01*
X63878Y113650D01*
X62772Y113946D01*
X61628D01*
X60522Y113650D01*
X59531Y113078D01*
X58722Y112269D01*
X58150Y111278D01*
X57854Y110172D01*
Y109028D01*
X58150Y107922D01*
X58722Y106931D01*
X59531Y106122D01*
X60522Y105550D01*
X61628Y105254D01*
X62772D01*
X63878Y105550D01*
X64869Y106122D01*
X65053Y106307D01*
X65515Y106115D01*
Y103085D01*
X65053Y102893D01*
X64869Y103078D01*
X63878Y103650D01*
X62772Y103946D01*
X61628D01*
X60522Y103650D01*
X59531Y103078D01*
X58722Y102269D01*
X58150Y101278D01*
X57854Y100172D01*
Y99028D01*
X58150Y97922D01*
X58722Y96931D01*
X59531Y96122D01*
X60522Y95550D01*
X61628Y95253D01*
X62772D01*
X63878Y95550D01*
X64869Y96122D01*
X65053Y96307D01*
X65515Y96115D01*
Y95209D01*
X63928Y93621D01*
X63878Y93650D01*
X62772Y93946D01*
X61628D01*
X60522Y93650D01*
X59531Y93078D01*
X58722Y92269D01*
X58150Y91278D01*
X57854Y90172D01*
Y89028D01*
X58150Y87922D01*
X58722Y86931D01*
X59531Y86122D01*
X60522Y85550D01*
X61628Y85254D01*
X62772D01*
X63878Y85550D01*
X64869Y86122D01*
X65678Y86931D01*
X66250Y87922D01*
X66546Y89028D01*
Y90172D01*
X66250Y91278D01*
X66221Y91328D01*
X68284Y93390D01*
X68635Y93916D01*
X68759Y94537D01*
Y171645D01*
X68635Y172266D01*
X68284Y172792D01*
X65329Y175747D01*
X65252Y175798D01*
X65188Y176442D01*
X65678Y176931D01*
X66250Y177922D01*
X66546Y179028D01*
Y180172D01*
X66250Y181278D01*
X65678Y182269D01*
X64869Y183078D01*
X63878Y183650D01*
X62772Y183947D01*
X61628D01*
X60522Y183650D01*
X59531Y183078D01*
X59035Y182582D01*
X58392Y182646D01*
X58315Y182760D01*
X55344Y185731D01*
X55249Y185795D01*
X55185Y186439D01*
X55678Y186931D01*
X56250Y187922D01*
X56546Y189028D01*
Y190172D01*
X56250Y191278D01*
X56221Y191328D01*
X57935Y193041D01*
X58841D01*
X59032Y192579D01*
X58722Y192269D01*
X58150Y191278D01*
X57854Y190172D01*
Y189028D01*
X58150Y187922D01*
X58722Y186931D01*
X59531Y186122D01*
X60522Y185550D01*
X61628Y185254D01*
X62772D01*
X63878Y185550D01*
X64869Y186122D01*
X65678Y186931D01*
X66250Y187922D01*
X66546Y189028D01*
Y190172D01*
X66250Y191278D01*
X65678Y192269D01*
X65368Y192579D01*
X65559Y193041D01*
X90163D01*
X90784Y193165D01*
X91310Y193516D01*
X99075Y201282D01*
X99575Y201075D01*
Y178865D01*
X98937Y178227D01*
X98417Y177326D01*
X98147Y176320D01*
Y175280D01*
X98417Y174274D01*
X98937Y173373D01*
X99673Y172637D01*
X100574Y172117D01*
X101580Y171847D01*
X102620D01*
X103626Y172117D01*
X104527Y172637D01*
X105263Y173373D01*
X105783Y174274D01*
X106053Y175280D01*
Y176320D01*
X105783Y177326D01*
X105263Y178227D01*
X104625Y178865D01*
Y201598D01*
X104675Y201784D01*
Y202463D01*
X104499Y203117D01*
X104160Y203705D01*
X103681Y204184D01*
X103094Y204523D01*
X102964Y204558D01*
X102834Y205041D01*
X117419Y219625D01*
X118039D01*
X118694Y219801D01*
X119281Y220140D01*
X119760Y220619D01*
X120099Y221206D01*
X120178Y221498D01*
X120735Y221648D01*
X124378Y218005D01*
Y215023D01*
X123904Y214314D01*
X123732Y213446D01*
X123252D01*
X123081Y214307D01*
X122592Y215038D01*
X121862Y215526D01*
X121590Y215580D01*
Y209800D01*
Y204020D01*
X121862Y204074D01*
X122592Y204562D01*
X123081Y205293D01*
X123252Y206154D01*
X123732D01*
X123904Y205287D01*
X124396Y204551D01*
X125132Y204059D01*
X126000Y203886D01*
X126868Y204059D01*
X127604Y204551D01*
X128096Y205287D01*
X128245Y206038D01*
X128755D01*
X128904Y205287D01*
X129396Y204551D01*
X130132Y204059D01*
X131000Y203886D01*
X131868Y204059D01*
X132604Y204551D01*
X133096Y205287D01*
X133245Y206038D01*
X133755D01*
X133904Y205287D01*
X134396Y204551D01*
X135132Y204059D01*
X136000Y203886D01*
X136868Y204059D01*
X137604Y204551D01*
X138096Y205287D01*
X138245Y206038D01*
X138755D01*
X138904Y205287D01*
X139396Y204551D01*
X140132Y204059D01*
X141000Y203886D01*
X141868Y204059D01*
X142604Y204551D01*
X143096Y205287D01*
X143245Y206038D01*
X143755D01*
X143904Y205287D01*
X144396Y204551D01*
X145132Y204059D01*
X146000Y203886D01*
X146868Y204059D01*
X147604Y204551D01*
X148096Y205287D01*
X148245Y206038D01*
X148755D01*
X148904Y205287D01*
X149396Y204551D01*
X150132Y204059D01*
X151000Y203886D01*
X151868Y204059D01*
X152604Y204551D01*
X153096Y205287D01*
X153268Y206154D01*
Y213446D01*
X153096Y214314D01*
X152672Y214948D01*
Y219522D01*
X153172Y219587D01*
X153301Y219106D01*
X153640Y218519D01*
X154119Y218040D01*
X154228Y217977D01*
Y215670D01*
X153775D01*
Y203930D01*
X158225D01*
Y215670D01*
X157472D01*
Y218230D01*
X157760Y218519D01*
X158099Y219106D01*
X158275Y219761D01*
Y220439D01*
X158099Y221094D01*
X157760Y221681D01*
X157281Y222160D01*
X156694Y222499D01*
X156039Y222675D01*
X155361D01*
X154706Y222499D01*
X154119Y222160D01*
X153640Y221681D01*
X153301Y221094D01*
X153172Y220613D01*
X152672Y220678D01*
Y227434D01*
X152681Y227440D01*
X153160Y227919D01*
X153499Y228506D01*
X153675Y229161D01*
Y229839D01*
X153499Y230494D01*
X153160Y231081D01*
X152681Y231560D01*
X152094Y231899D01*
X151439Y232075D01*
X150761D01*
X150106Y231899D01*
X149519Y231560D01*
X149040Y231081D01*
X148701Y230494D01*
X148525Y229839D01*
Y229161D01*
X148701Y228506D01*
X149040Y227919D01*
X149428Y227530D01*
Y215071D01*
X149396Y215050D01*
X148904Y214314D01*
X148755Y213562D01*
X148245D01*
X148096Y214314D01*
X147672Y214948D01*
Y232634D01*
X147681Y232640D01*
X148160Y233119D01*
X148499Y233706D01*
X148675Y234361D01*
Y235039D01*
X148499Y235694D01*
X148160Y236281D01*
X147681Y236760D01*
X147094Y237099D01*
X146439Y237275D01*
X145761D01*
X145106Y237099D01*
X144519Y236760D01*
X144040Y236281D01*
X144035Y236272D01*
X143569Y236466D01*
X143675Y236861D01*
Y237539D01*
X143499Y238194D01*
X143160Y238781D01*
X142681Y239260D01*
X142094Y239599D01*
X141439Y239775D01*
X140761D01*
X140106Y239599D01*
X139519Y239260D01*
X139040Y238781D01*
X138701Y238194D01*
X138525Y237539D01*
Y236861D01*
X138701Y236206D01*
X139040Y235619D01*
X139428Y235230D01*
Y215071D01*
X139396Y215050D01*
X138904Y214314D01*
X138755Y213562D01*
X138245D01*
X138096Y214314D01*
X137622Y215023D01*
Y216400D01*
X137498Y217021D01*
X137147Y217547D01*
X113050Y241644D01*
X113168Y242049D01*
X113237Y242144D01*
X280763D01*
X294725Y228181D01*
Y227561D01*
X294901Y226906D01*
X295240Y226319D01*
X295719Y225840D01*
X296306Y225501D01*
X296961Y225325D01*
X297639D01*
X298294Y225501D01*
X298881Y225840D01*
X299360Y226319D01*
X299699Y226906D01*
X299875Y227561D01*
Y228239D01*
X299699Y228894D01*
X299360Y229481D01*
X298881Y229960D01*
X298294Y230299D01*
X297639Y230475D01*
X297019D01*
X282581Y244912D01*
X282055Y245264D01*
X281435Y245387D01*
D02*
G37*
G36*
X209472Y225247D02*
X208328D01*
X207222Y224950D01*
X206231Y224378D01*
X205422Y223569D01*
X204850Y222578D01*
X204554Y221472D01*
Y220328D01*
X204850Y219222D01*
X205422Y218231D01*
X206231Y217422D01*
X207222Y216850D01*
X208328Y216553D01*
X209472D01*
X210578Y216850D01*
X211569Y217422D01*
X212378Y218231D01*
X212950Y219222D01*
X213246Y220328D01*
Y221472D01*
X212950Y222578D01*
X212378Y223569D01*
X211569Y224378D01*
X210578Y224950D01*
X209472Y225247D01*
D02*
G37*
G36*
X269472Y225246D02*
X268328D01*
X267222Y224950D01*
X266231Y224378D01*
X265422Y223568D01*
X264850Y222577D01*
X264553Y221472D01*
Y220327D01*
X264850Y219222D01*
X265422Y218231D01*
X266231Y217422D01*
X267222Y216849D01*
X268328Y216553D01*
X269472D01*
X270578Y216849D01*
X271569Y217422D01*
X272378Y218231D01*
X272950Y219222D01*
X273247Y220327D01*
Y221472D01*
X272950Y222577D01*
X272378Y223568D01*
X271569Y224378D01*
X270578Y224950D01*
X269472Y225246D01*
D02*
G37*
G36*
X120409Y215580D02*
X120138Y215526D01*
X119407Y215038D01*
X118919Y214307D01*
X118748Y213446D01*
Y210391D01*
X120409D01*
Y215580D01*
D02*
G37*
G36*
X209472Y215247D02*
X208328D01*
X207222Y214950D01*
X206231Y214378D01*
X205422Y213569D01*
X204850Y212578D01*
X204554Y211472D01*
Y210328D01*
X204850Y209222D01*
X205422Y208231D01*
X206231Y207422D01*
X207222Y206850D01*
X208328Y206554D01*
X209472D01*
X210578Y206850D01*
X211569Y207422D01*
X212378Y208231D01*
X212950Y209222D01*
X213246Y210328D01*
Y211472D01*
X212950Y212578D01*
X212378Y213569D01*
X211569Y214378D01*
X210578Y214950D01*
X209472Y215247D01*
D02*
G37*
G36*
X281081Y237459D02*
X190437D01*
X189816Y237335D01*
X189290Y236984D01*
X164181Y211875D01*
X163561D01*
X162906Y211699D01*
X162319Y211360D01*
X161840Y210881D01*
X161501Y210294D01*
X161325Y209639D01*
Y208961D01*
X161501Y208306D01*
X161840Y207719D01*
X162319Y207240D01*
X162906Y206901D01*
X163561Y206725D01*
X164239D01*
X164894Y206901D01*
X165481Y207240D01*
X165960Y207719D01*
X166299Y208306D01*
X166475Y208961D01*
Y209581D01*
X191109Y234215D01*
X204554D01*
Y226554D01*
X213246D01*
Y234215D01*
X265416D01*
X265607Y233753D01*
X265422Y233568D01*
X264850Y232577D01*
X264553Y231472D01*
Y230327D01*
X264850Y229222D01*
X265422Y228231D01*
X266231Y227422D01*
X267222Y226849D01*
X268328Y226553D01*
X269472D01*
X270578Y226849D01*
X271569Y227422D01*
X272378Y228231D01*
X272950Y229222D01*
X273247Y230327D01*
Y231472D01*
X272950Y232577D01*
X272378Y233568D01*
X272193Y233753D01*
X272384Y234215D01*
X280409D01*
X300178Y214446D01*
X299971Y213947D01*
X297853D01*
Y206285D01*
X295685D01*
X295494Y206747D01*
X295678Y206931D01*
X296250Y207922D01*
X296547Y209028D01*
Y210172D01*
X296250Y211278D01*
X295678Y212269D01*
X294869Y213078D01*
X293878Y213650D01*
X292772Y213947D01*
X291628D01*
X290522Y213650D01*
X289531Y213078D01*
X288722Y212269D01*
X288150Y211278D01*
X287854Y210172D01*
Y209028D01*
X288150Y207922D01*
X288722Y206931D01*
X288907Y206747D01*
X288715Y206285D01*
X278938D01*
X278764Y206295D01*
X278714Y206289D01*
X278666Y206298D01*
X275795D01*
X272921Y209172D01*
X272950Y209222D01*
X273247Y210327D01*
Y211472D01*
X272950Y212577D01*
X272378Y213568D01*
X271569Y214378D01*
X270578Y214950D01*
X269472Y215246D01*
X268328D01*
X267222Y214950D01*
X266231Y214378D01*
X265422Y213568D01*
X264850Y212577D01*
X264553Y211472D01*
Y210327D01*
X264850Y209222D01*
X265422Y208231D01*
X266231Y207422D01*
X267222Y206849D01*
X268328Y206553D01*
X269472D01*
X270578Y206849D01*
X270628Y206878D01*
X273976Y203530D01*
X274502Y203178D01*
X275123Y203055D01*
X278616D01*
X278791Y203044D01*
X278840Y203051D01*
X278889Y203041D01*
X288841D01*
X289033Y202579D01*
X288722Y202269D01*
X288150Y201278D01*
X287854Y200172D01*
Y199028D01*
X288150Y197922D01*
X288722Y196931D01*
X289032Y196622D01*
X288824Y196122D01*
X275971D01*
X272921Y199172D01*
X272950Y199222D01*
X273247Y200327D01*
Y201472D01*
X272950Y202577D01*
X272378Y203568D01*
X271569Y204378D01*
X270578Y204950D01*
X269472Y205246D01*
X268328D01*
X267222Y204950D01*
X266231Y204378D01*
X265422Y203568D01*
X264850Y202577D01*
X264553Y201472D01*
Y200327D01*
X264850Y199222D01*
X265422Y198231D01*
X266231Y197422D01*
X267222Y196849D01*
X268328Y196553D01*
X269472D01*
X270578Y196849D01*
X270628Y196878D01*
X274153Y193353D01*
X274679Y193002D01*
X275300Y192878D01*
X288678D01*
X288870Y192416D01*
X288722Y192269D01*
X288150Y191278D01*
X287854Y190172D01*
Y189028D01*
X288150Y187922D01*
X288722Y186931D01*
X289531Y186122D01*
X290522Y185550D01*
X291628Y185254D01*
X292772D01*
X293878Y185550D01*
X294869Y186122D01*
X295179Y186433D01*
X295641Y186241D01*
Y182937D01*
X295179Y182745D01*
X294859Y183065D01*
X293872Y183636D01*
X292791Y183925D01*
Y179600D01*
Y175275D01*
X293872Y175564D01*
X294859Y176135D01*
X295179Y176455D01*
X295641Y176263D01*
Y172959D01*
X295179Y172767D01*
X294869Y173078D01*
X293878Y173650D01*
X292772Y173946D01*
X291628D01*
X290522Y173650D01*
X289531Y173078D01*
X288722Y172269D01*
X288150Y171278D01*
X287854Y170172D01*
Y169028D01*
X288150Y167922D01*
X288722Y166931D01*
X289531Y166122D01*
X290522Y165550D01*
X291628Y165253D01*
X292772D01*
X293878Y165550D01*
X294869Y166122D01*
X295179Y166432D01*
X295641Y166241D01*
Y162959D01*
X295179Y162768D01*
X294869Y163078D01*
X293878Y163650D01*
X292772Y163946D01*
X291628D01*
X290522Y163650D01*
X289531Y163078D01*
X288722Y162269D01*
X288150Y161278D01*
X287854Y160172D01*
Y159028D01*
X288150Y157922D01*
X288722Y156931D01*
X289531Y156122D01*
X290522Y155550D01*
X291628Y155254D01*
X292772D01*
X293878Y155550D01*
X294869Y156122D01*
X295179Y156432D01*
X295641Y156241D01*
Y152959D01*
X295179Y152768D01*
X294869Y153078D01*
X293878Y153650D01*
X292772Y153946D01*
X291628D01*
X290522Y153650D01*
X289531Y153078D01*
X288722Y152269D01*
X288150Y151278D01*
X287854Y150172D01*
Y149028D01*
X288150Y147922D01*
X288722Y146931D01*
X289531Y146122D01*
X290522Y145550D01*
X291628Y145254D01*
X292772D01*
X293878Y145550D01*
X294869Y146122D01*
X295179Y146432D01*
X295641Y146241D01*
Y142959D01*
X295179Y142768D01*
X294869Y143078D01*
X293878Y143650D01*
X292772Y143947D01*
X291628D01*
X290522Y143650D01*
X289531Y143078D01*
X288722Y142269D01*
X288150Y141278D01*
X287854Y140172D01*
Y139028D01*
X288150Y137922D01*
X288722Y136931D01*
X289531Y136122D01*
X290522Y135550D01*
X291628Y135254D01*
X292772D01*
X293878Y135550D01*
X294869Y136122D01*
X295179Y136433D01*
X295641Y136241D01*
Y132959D01*
X295179Y132767D01*
X294869Y133078D01*
X293878Y133650D01*
X292772Y133947D01*
X291628D01*
X290522Y133650D01*
X289531Y133078D01*
X288722Y132269D01*
X288150Y131278D01*
X287854Y130172D01*
Y129028D01*
X287896Y128867D01*
X268354Y109325D01*
X200146D01*
X177523Y131948D01*
Y134358D01*
X179059D01*
Y140295D01*
X171941D01*
Y134358D01*
X173477D01*
Y132125D01*
X112725D01*
Y138113D01*
X112533Y139080D01*
X111985Y139899D01*
X106053Y145831D01*
Y146734D01*
X105783Y147739D01*
X105263Y148641D01*
X104527Y149376D01*
X103626Y149897D01*
X103194Y150013D01*
X103086Y150559D01*
X103361Y150971D01*
X103485Y151592D01*
Y153641D01*
X104631D01*
Y160759D01*
X101392D01*
X101200Y161221D01*
X104017Y164037D01*
X117168D01*
X117359Y163575D01*
X113005Y159222D01*
X112505Y159429D01*
Y160759D01*
X106569D01*
Y153641D01*
X112505D01*
Y155578D01*
X113277D01*
X113898Y155702D01*
X114424Y156053D01*
X117070Y158699D01*
X117532Y158508D01*
Y155779D01*
X117500Y155622D01*
Y153907D01*
X113519Y149925D01*
X112620Y150166D01*
X111580D01*
X110574Y149897D01*
X109673Y149376D01*
X108937Y148641D01*
X108417Y147739D01*
X108147Y146734D01*
Y145693D01*
X108417Y144688D01*
X108937Y143786D01*
X109673Y143050D01*
X110574Y142530D01*
X111580Y142261D01*
X112620D01*
X113626Y142530D01*
X114527Y143050D01*
X115263Y143786D01*
X115783Y144688D01*
X116053Y145693D01*
Y146734D01*
X115812Y147632D01*
X120269Y152089D01*
X120620Y152615D01*
X120744Y153235D01*
Y153441D01*
X123468D01*
Y160559D01*
X119583D01*
X119392Y161021D01*
X126290Y167920D01*
X126752Y167728D01*
Y160559D01*
X125406D01*
Y153441D01*
X131342D01*
Y160559D01*
X129996D01*
Y168393D01*
X137147Y175544D01*
X137498Y176070D01*
X137622Y176691D01*
Y185553D01*
X138096Y186262D01*
X138245Y187014D01*
X138755D01*
X138904Y186262D01*
X139396Y185527D01*
X139621Y185376D01*
Y158262D01*
X139540Y158181D01*
X139201Y157594D01*
X139025Y156939D01*
Y156261D01*
X139201Y155606D01*
X139540Y155019D01*
X140019Y154540D01*
X140606Y154201D01*
X141261Y154025D01*
X141939D01*
X142594Y154201D01*
X143181Y154540D01*
X143660Y155019D01*
X143999Y155606D01*
X144175Y156261D01*
Y156939D01*
X143999Y157594D01*
X143660Y158181D01*
X143181Y158660D01*
X142864Y158843D01*
Y185916D01*
X143096Y186262D01*
X143245Y187014D01*
X143755D01*
X143904Y186262D01*
X144396Y185527D01*
X144528Y185438D01*
Y178170D01*
X144240Y177881D01*
X143901Y177294D01*
X143725Y176639D01*
Y175961D01*
X143901Y175306D01*
X144240Y174719D01*
X144719Y174240D01*
X145306Y173901D01*
X145961Y173725D01*
X146639D01*
X147294Y173901D01*
X147881Y174240D01*
X148360Y174719D01*
X148699Y175306D01*
X148875Y175961D01*
Y176639D01*
X148699Y177294D01*
X148360Y177881D01*
X147881Y178360D01*
X147772Y178423D01*
Y185778D01*
X148096Y186262D01*
X148245Y187014D01*
X148755D01*
X148904Y186262D01*
X149378Y185553D01*
Y181520D01*
X148940Y181081D01*
X148601Y180494D01*
X148425Y179839D01*
Y179161D01*
X148601Y178506D01*
X148940Y177919D01*
X149419Y177440D01*
X150006Y177101D01*
X150661Y176925D01*
X151339D01*
X151994Y177101D01*
X152581Y177440D01*
X153025Y177884D01*
X153221Y177864D01*
X153397Y177805D01*
X153532Y177736D01*
X153701Y177106D01*
X154040Y176519D01*
X154519Y176040D01*
X155106Y175701D01*
X155761Y175525D01*
X156439D01*
X157094Y175701D01*
X157681Y176040D01*
X158160Y176519D01*
X158499Y177106D01*
X158675Y177761D01*
Y178439D01*
X158499Y179094D01*
X158160Y179681D01*
X157681Y180160D01*
X157622Y180195D01*
Y185553D01*
X158096Y186262D01*
X158268Y187130D01*
Y194422D01*
X158096Y195290D01*
X157604Y196025D01*
X156868Y196517D01*
X156000Y196690D01*
X155132Y196517D01*
X154396Y196025D01*
X153904Y195290D01*
X153755Y194538D01*
X153245D01*
X153096Y195290D01*
X152604Y196025D01*
X151868Y196517D01*
X151000Y196690D01*
X150132Y196517D01*
X149396Y196025D01*
X148904Y195290D01*
X148755Y194538D01*
X148245D01*
X148096Y195290D01*
X147604Y196025D01*
X146868Y196517D01*
X146000Y196690D01*
X145132Y196517D01*
X144396Y196025D01*
X143904Y195290D01*
X143755Y194538D01*
X143245D01*
X143096Y195290D01*
X142604Y196025D01*
X141868Y196517D01*
X141000Y196690D01*
X140132Y196517D01*
X139396Y196025D01*
X138904Y195290D01*
X138755Y194538D01*
X138245D01*
X138096Y195290D01*
X137604Y196025D01*
X136868Y196517D01*
X136000Y196690D01*
X135132Y196517D01*
X134396Y196025D01*
X133904Y195290D01*
X133755Y194538D01*
X133245D01*
X133096Y195290D01*
X132604Y196025D01*
X131868Y196517D01*
X131000Y196690D01*
X130132Y196517D01*
X129396Y196025D01*
X128904Y195290D01*
X128755Y194538D01*
X128245D01*
X128096Y195290D01*
X127604Y196025D01*
X126868Y196517D01*
X126000Y196690D01*
X125132Y196517D01*
X124396Y196025D01*
X123904Y195290D01*
X123755Y194538D01*
X123245D01*
X123096Y195290D01*
X122604Y196025D01*
X121868Y196517D01*
X121000Y196690D01*
X120132Y196517D01*
X119396Y196025D01*
X118904Y195290D01*
X118732Y194422D01*
Y187130D01*
X118904Y186262D01*
X118977Y186154D01*
Y178267D01*
X118937Y178227D01*
X118417Y177326D01*
X118147Y176320D01*
Y175280D01*
X118417Y174274D01*
X118937Y173373D01*
X119673Y172637D01*
X120574Y172117D01*
X121580Y171847D01*
X121626D01*
X121817Y171385D01*
X117712Y167281D01*
X103345D01*
X102725Y167157D01*
X102198Y166806D01*
X94414Y159022D01*
X92980D01*
Y160959D01*
X87042D01*
Y153841D01*
X92980D01*
Y155778D01*
X95086D01*
X95707Y155902D01*
X96233Y156253D01*
X98233Y158253D01*
X98694Y158062D01*
Y153641D01*
X100241D01*
Y152522D01*
X96787D01*
X96166Y152398D01*
X95640Y152047D01*
X93519Y149925D01*
X92620Y150166D01*
X91580D01*
X90574Y149897D01*
X89673Y149376D01*
X88937Y148641D01*
X88417Y147739D01*
X88147Y146734D01*
Y145693D01*
X88417Y144688D01*
X88937Y143786D01*
X89673Y143050D01*
X90574Y142530D01*
X91580Y142261D01*
X92620D01*
X93626Y142530D01*
X94527Y143050D01*
X95263Y143786D01*
X95783Y144688D01*
X96053Y145693D01*
Y146734D01*
X95812Y147632D01*
X97458Y149278D01*
X98922D01*
X99113Y148816D01*
X98937Y148641D01*
X98417Y147739D01*
X98147Y146734D01*
Y145693D01*
X98417Y144688D01*
X98937Y143786D01*
X99673Y143050D01*
X100574Y142530D01*
X101580Y142261D01*
X102482D01*
X107675Y137068D01*
Y130646D01*
X102082Y125053D01*
X101180D01*
X100174Y124783D01*
X99273Y124263D01*
X98537Y123527D01*
X98017Y122626D01*
X97747Y121620D01*
Y120580D01*
X98017Y119574D01*
X98537Y118673D01*
X99273Y117937D01*
X100174Y117417D01*
X101180Y117147D01*
X102220D01*
X103226Y117417D01*
X104127Y117937D01*
X104863Y118673D01*
X105383Y119574D01*
X105653Y120580D01*
Y121482D01*
X111246Y127075D01*
X119175D01*
Y124165D01*
X118537Y123527D01*
X118017Y122626D01*
X117747Y121620D01*
Y120580D01*
X118017Y119574D01*
X118537Y118673D01*
X119273Y117937D01*
X120174Y117417D01*
X121180Y117147D01*
X122220D01*
X123226Y117417D01*
X124127Y117937D01*
X124863Y118673D01*
X125383Y119574D01*
X125653Y120580D01*
Y121620D01*
X125383Y122626D01*
X124863Y123527D01*
X124225Y124165D01*
Y127075D01*
X175254D01*
X197315Y105015D01*
X198134Y104467D01*
X199100Y104275D01*
X269400D01*
X270366Y104467D01*
X271185Y105015D01*
X287785Y121614D01*
X288185Y121307D01*
X288164Y121272D01*
X287875Y120191D01*
X292200D01*
Y119600D01*
X292791D01*
Y115275D01*
X293872Y115564D01*
X294859Y116135D01*
X295179Y116455D01*
X295641Y116263D01*
Y112936D01*
X295179Y112745D01*
X294859Y113065D01*
X293872Y113636D01*
X292791Y113925D01*
Y109600D01*
Y105275D01*
X293872Y105564D01*
X294859Y106135D01*
X295179Y106455D01*
X295641Y106263D01*
Y102959D01*
X295179Y102768D01*
X294869Y103078D01*
X293878Y103650D01*
X292772Y103946D01*
X291628D01*
X290522Y103650D01*
X289531Y103078D01*
X288722Y102269D01*
X288150Y101278D01*
X287854Y100172D01*
Y99028D01*
X288150Y97922D01*
X288722Y96931D01*
X289531Y96122D01*
X290522Y95550D01*
X291628Y95253D01*
X292772D01*
X293878Y95550D01*
X294869Y96122D01*
X295179Y96433D01*
X295641Y96241D01*
Y92959D01*
X295179Y92768D01*
X294869Y93078D01*
X293878Y93650D01*
X292772Y93946D01*
X291628D01*
X290522Y93650D01*
X289531Y93078D01*
X288722Y92269D01*
X288150Y91278D01*
X287854Y90172D01*
Y89028D01*
X288150Y87922D01*
X288722Y86931D01*
X289531Y86122D01*
X290522Y85550D01*
X291628Y85254D01*
X292772D01*
X293878Y85550D01*
X294869Y86122D01*
X295179Y86432D01*
X295641Y86241D01*
Y82959D01*
X295179Y82767D01*
X294869Y83078D01*
X293878Y83650D01*
X292772Y83947D01*
X291628D01*
X290522Y83650D01*
X289531Y83078D01*
X288722Y82269D01*
X288150Y81278D01*
X287854Y80172D01*
Y79028D01*
X288150Y77922D01*
X288722Y76931D01*
X289531Y76122D01*
X290522Y75550D01*
X291628Y75253D01*
X292772D01*
X293878Y75550D01*
X294869Y76122D01*
X295179Y76433D01*
X295641Y76241D01*
Y72959D01*
X295179Y72768D01*
X294869Y73078D01*
X293878Y73650D01*
X292772Y73946D01*
X291628D01*
X290522Y73650D01*
X289531Y73078D01*
X288722Y72269D01*
X288150Y71278D01*
X287854Y70172D01*
Y69028D01*
X288150Y67922D01*
X288722Y66931D01*
X289531Y66122D01*
X290522Y65550D01*
X291628Y65254D01*
X292772D01*
X293878Y65550D01*
X294869Y66122D01*
X295179Y66432D01*
X295641Y66241D01*
Y62959D01*
X295179Y62767D01*
X294869Y63078D01*
X293878Y63650D01*
X292772Y63946D01*
X291628D01*
X290522Y63650D01*
X289531Y63078D01*
X288722Y62269D01*
X288150Y61278D01*
X287854Y60172D01*
Y59028D01*
X288150Y57922D01*
X288722Y56931D01*
X289531Y56122D01*
X290522Y55550D01*
X291628Y55253D01*
X292772D01*
X293878Y55550D01*
X294869Y56122D01*
X295179Y56432D01*
X295641Y56241D01*
Y52959D01*
X295179Y52767D01*
X294869Y53078D01*
X293878Y53650D01*
X292772Y53947D01*
X291628D01*
X290522Y53650D01*
X289531Y53078D01*
X288722Y52269D01*
X288150Y51278D01*
X287854Y50172D01*
Y49028D01*
X288150Y47922D01*
X288722Y46931D01*
X289531Y46122D01*
X290522Y45550D01*
X291628Y45254D01*
X292772D01*
X293878Y45550D01*
X294869Y46122D01*
X295179Y46433D01*
X295641Y46241D01*
Y42959D01*
X295179Y42768D01*
X294869Y43078D01*
X293878Y43650D01*
X292772Y43946D01*
X291628D01*
X290522Y43650D01*
X289531Y43078D01*
X288722Y42269D01*
X288150Y41278D01*
X287854Y40172D01*
Y39028D01*
X288150Y37922D01*
X288179Y37872D01*
X284428Y34122D01*
X242442D01*
X242377Y34622D01*
X243288Y34866D01*
X244167Y35373D01*
X244884Y36091D01*
X245392Y36970D01*
X245654Y37950D01*
Y38965D01*
X245392Y39945D01*
X244884Y40824D01*
X244167Y41542D01*
X243422Y41972D01*
Y50185D01*
X243298Y50805D01*
X242947Y51331D01*
X240452Y53826D01*
X240643Y54288D01*
X245654D01*
Y61997D01*
X237946D01*
Y56986D01*
X237484Y56794D01*
X236422Y57856D01*
Y77880D01*
X236860Y78319D01*
X237199Y78906D01*
X237375Y79561D01*
Y80239D01*
X237199Y80894D01*
X236860Y81481D01*
X236381Y81960D01*
X235794Y82299D01*
X235139Y82475D01*
X234461D01*
X233806Y82299D01*
X233219Y81960D01*
X232740Y81481D01*
X232401Y80894D01*
X232225Y80239D01*
Y79561D01*
X232401Y78906D01*
X232740Y78319D01*
X233178Y77880D01*
Y57184D01*
X233302Y56564D01*
X233653Y56038D01*
X240178Y49513D01*
Y41972D01*
X239433Y41542D01*
X238716Y40824D01*
X238208Y39945D01*
X237946Y38965D01*
Y37950D01*
X238208Y36970D01*
X238716Y36091D01*
X239433Y35373D01*
X240312Y34866D01*
X241223Y34622D01*
X241158Y34122D01*
X166943D01*
X166842Y34283D01*
X166763Y34622D01*
X167160Y35019D01*
X167499Y35606D01*
X167675Y36261D01*
Y36939D01*
X167499Y37594D01*
X167160Y38181D01*
X166681Y38660D01*
X166094Y38999D01*
X165439Y39175D01*
X164761D01*
X164106Y38999D01*
X163519Y38660D01*
X163180Y38322D01*
X154281D01*
X153993Y38822D01*
X154099Y39006D01*
X154275Y39661D01*
Y40339D01*
X154099Y40994D01*
X153760Y41581D01*
X153281Y42060D01*
X153222Y42095D01*
Y45703D01*
X153596Y46262D01*
X153768Y47130D01*
X154248D01*
X154419Y46268D01*
X154907Y45538D01*
X155492Y45147D01*
X157351Y43288D01*
Y41326D01*
X157505Y40552D01*
X157943Y39895D01*
X158169Y39669D01*
X158826Y39231D01*
X159600Y39077D01*
X160374Y39231D01*
X161031Y39669D01*
X161469Y40326D01*
X161623Y41100D01*
X161469Y41874D01*
X161397Y41982D01*
Y44126D01*
X161243Y44900D01*
X160805Y45557D01*
X158752Y47609D01*
Y50185D01*
X156500D01*
Y50776D01*
X155909D01*
Y56556D01*
X155638Y56502D01*
X154907Y56014D01*
X154419Y55283D01*
X154248Y54421D01*
X153768D01*
X153596Y55289D01*
X153104Y56025D01*
X152368Y56517D01*
X151500Y56690D01*
X150632Y56517D01*
X149896Y56025D01*
X149404Y55289D01*
X149255Y54538D01*
X148745D01*
X148596Y55289D01*
X148104Y56025D01*
X147368Y56517D01*
X146500Y56690D01*
X145632Y56517D01*
X144896Y56025D01*
X144404Y55289D01*
X144255Y54538D01*
X143745D01*
X143596Y55289D01*
X143104Y56025D01*
X142368Y56517D01*
X141500Y56690D01*
X140632Y56517D01*
X139896Y56025D01*
X139404Y55289D01*
X139255Y54538D01*
X138745D01*
X138596Y55289D01*
X138104Y56025D01*
X137368Y56517D01*
X136500Y56690D01*
X135632Y56517D01*
X134896Y56025D01*
X134404Y55289D01*
X134255Y54538D01*
X133745D01*
X133596Y55289D01*
X133104Y56025D01*
X132368Y56517D01*
X131500Y56690D01*
X130632Y56517D01*
X129896Y56025D01*
X129404Y55289D01*
X129255Y54538D01*
X128745D01*
X128596Y55289D01*
X128104Y56025D01*
X127368Y56517D01*
X126500Y56690D01*
X125632Y56517D01*
X124896Y56025D01*
X124404Y55289D01*
X124232Y54421D01*
Y47633D01*
X124225Y47628D01*
X123725Y47895D01*
Y56646D01*
X119275D01*
Y52322D01*
X107839D01*
X107218Y52198D01*
X106692Y51847D01*
X90520Y35675D01*
X89861D01*
X89206Y35499D01*
X88619Y35160D01*
X88140Y34681D01*
X87801Y34094D01*
X87625Y33439D01*
Y32761D01*
X87801Y32106D01*
X88140Y31519D01*
X88619Y31040D01*
X89206Y30701D01*
X89634Y30586D01*
X89701Y30315D01*
X89678Y30057D01*
X89166Y29761D01*
X88687Y29282D01*
X88348Y28695D01*
X88172Y28040D01*
Y27362D01*
X88348Y26707D01*
X88687Y26120D01*
X89166Y25641D01*
X89753Y25302D01*
X90408Y25126D01*
X91086D01*
X91741Y25302D01*
X92328Y25641D01*
X92808Y26120D01*
X93147Y26707D01*
X93322Y27362D01*
Y27983D01*
X95181Y29842D01*
X95327Y30060D01*
X95558Y30360D01*
X95992Y30224D01*
X96206Y30101D01*
X96861Y29925D01*
X97539D01*
X98194Y30101D01*
X98781Y30440D01*
X99220Y30878D01*
X113406D01*
X113468Y30836D01*
X114089Y30713D01*
X116711D01*
X117332Y30836D01*
X117394Y30878D01*
X118030D01*
X118237Y30378D01*
X118059Y30200D01*
X117719Y29613D01*
X117544Y28958D01*
Y28280D01*
X117310Y27975D01*
X117161D01*
X116506Y27799D01*
X115919Y27460D01*
X115440Y26981D01*
X115101Y26394D01*
X114925Y25739D01*
Y25061D01*
X115101Y24406D01*
X115440Y23819D01*
X115557Y23702D01*
X115619Y23160D01*
X115537Y23078D01*
X115140Y22681D01*
X114801Y22094D01*
X114625Y21439D01*
Y20761D01*
X114801Y20106D01*
X115140Y19519D01*
X115437Y19222D01*
X115230Y18722D01*
X87120D01*
X86681Y19160D01*
X86094Y19499D01*
X85439Y19675D01*
X84761D01*
X84106Y19499D01*
X83519Y19160D01*
X83040Y18681D01*
X82701Y18094D01*
X82666Y17964D01*
X82183Y17834D01*
X76933Y23084D01*
Y43470D01*
X76810Y44091D01*
X76459Y44617D01*
X68816Y52260D01*
X68859Y52361D01*
X69110Y52673D01*
X69661Y52525D01*
X70339D01*
X70994Y52701D01*
X71581Y53040D01*
X71770Y53228D01*
X78119D01*
X78240Y53019D01*
X78719Y52540D01*
X79306Y52201D01*
X79961Y52025D01*
X80639D01*
X81294Y52201D01*
X81881Y52540D01*
X82360Y53019D01*
X82699Y53606D01*
X82875Y54261D01*
Y54939D01*
X82699Y55594D01*
X82360Y56181D01*
X81881Y56660D01*
X81294Y56999D01*
X80639Y57175D01*
X79961D01*
X79306Y56999D01*
X78719Y56660D01*
X78530Y56472D01*
X72181D01*
X72060Y56681D01*
X71581Y57160D01*
X70994Y57499D01*
X70339Y57675D01*
X69661D01*
X69259Y57567D01*
X68796Y57868D01*
X68759Y57933D01*
Y64663D01*
X68635Y65284D01*
X68284Y65810D01*
X66221Y67872D01*
X66250Y67922D01*
X66546Y69028D01*
Y70172D01*
X66250Y71278D01*
X65678Y72269D01*
X64869Y73078D01*
X63878Y73650D01*
X62772Y73946D01*
X61628D01*
X60522Y73650D01*
X59531Y73078D01*
X58722Y72269D01*
X58150Y71278D01*
X57854Y70172D01*
Y69028D01*
X58150Y67922D01*
X58722Y66931D01*
X59531Y66122D01*
X60522Y65550D01*
X61628Y65254D01*
X62772D01*
X63878Y65550D01*
X63928Y65579D01*
X65515Y63991D01*
Y63085D01*
X65053Y62893D01*
X64869Y63078D01*
X63878Y63650D01*
X62772Y63946D01*
X61628D01*
X60522Y63650D01*
X59531Y63078D01*
X58722Y62269D01*
X58150Y61278D01*
X57854Y60172D01*
Y59028D01*
X58150Y57922D01*
X58722Y56931D01*
X59531Y56122D01*
X60522Y55550D01*
X61628Y55253D01*
X62772D01*
X63878Y55550D01*
X64713Y56032D01*
X65213Y55812D01*
Y53388D01*
X64713Y53168D01*
X63878Y53650D01*
X62772Y53947D01*
X61628D01*
X60522Y53650D01*
X59531Y53078D01*
X58722Y52269D01*
X58150Y51278D01*
X57854Y50172D01*
Y49028D01*
X58150Y47922D01*
X58722Y46931D01*
X59531Y46122D01*
X60522Y45550D01*
X61628Y45254D01*
X62772D01*
X63878Y45550D01*
X64869Y46122D01*
X65678Y46931D01*
X66250Y47922D01*
X66546Y49028D01*
Y49289D01*
X67008Y49480D01*
X73690Y42799D01*
Y22412D01*
X73813Y21791D01*
X74165Y21265D01*
X82642Y12788D01*
X83168Y12436D01*
X83789Y12313D01*
X186635D01*
X187255Y12436D01*
X187781Y12788D01*
X193219Y18225D01*
X193839D01*
X194494Y18401D01*
X195081Y18740D01*
X195560Y19219D01*
X195899Y19806D01*
X196075Y20461D01*
Y21139D01*
X195899Y21794D01*
X195560Y22381D01*
X195081Y22860D01*
X194494Y23199D01*
X193839Y23375D01*
X193161D01*
X192506Y23199D01*
X191919Y22860D01*
X191440Y22381D01*
X191101Y21794D01*
X190925Y21139D01*
Y20519D01*
X185963Y15556D01*
X139182D01*
X138932Y15989D01*
X138999Y16106D01*
X139175Y16761D01*
Y17439D01*
X138999Y18094D01*
X138660Y18681D01*
X138363Y18978D01*
X138570Y19478D01*
X140232D01*
X140584Y19548D01*
X140606Y19536D01*
X141261Y19360D01*
X141939D01*
X142594Y19536D01*
X143181Y19875D01*
X143660Y20354D01*
X143999Y20941D01*
X144175Y21596D01*
Y22274D01*
X143999Y22929D01*
X143874Y23146D01*
X144120Y23633D01*
X144485Y23674D01*
X144819Y23340D01*
X145406Y23001D01*
X146061Y22825D01*
X146739D01*
X147394Y23001D01*
X147981Y23340D01*
X148460Y23819D01*
X148799Y24406D01*
X148975Y25061D01*
Y25739D01*
X148799Y26394D01*
X148664Y26628D01*
X148953Y27128D01*
X149930D01*
X150219Y26840D01*
X150806Y26501D01*
X151461Y26325D01*
X152139D01*
X152794Y26501D01*
X153381Y26840D01*
X153860Y27319D01*
X154199Y27906D01*
X154375Y28561D01*
Y29239D01*
X154199Y29894D01*
X153920Y30378D01*
X154101Y30878D01*
X285100D01*
X285721Y31002D01*
X286247Y31353D01*
X290472Y35579D01*
X290522Y35550D01*
X291628Y35254D01*
X292772D01*
X293878Y35550D01*
X294869Y36122D01*
X295179Y36432D01*
X295641Y36241D01*
Y34537D01*
X295765Y33916D01*
X296116Y33390D01*
X298179Y31328D01*
X298150Y31278D01*
X297853Y30172D01*
Y29028D01*
X298150Y27922D01*
X298722Y26931D01*
X299531Y26122D01*
X300522Y25550D01*
X301628Y25254D01*
X302772D01*
X303878Y25550D01*
X304869Y26122D01*
X305678Y26931D01*
X306250Y27922D01*
X306546Y29028D01*
Y30172D01*
X306250Y31278D01*
X305678Y32269D01*
X304869Y33078D01*
X303878Y33650D01*
X302772Y33946D01*
X301628D01*
X300522Y33650D01*
X300472Y33621D01*
X298885Y35209D01*
Y36115D01*
X299347Y36307D01*
X299531Y36122D01*
X300522Y35550D01*
X301628Y35254D01*
X302772D01*
X303878Y35550D01*
X304869Y36122D01*
X305678Y36931D01*
X306250Y37922D01*
X306546Y39028D01*
Y40172D01*
X306250Y41278D01*
X306221Y41328D01*
X308284Y43390D01*
X308635Y43916D01*
X308759Y44537D01*
X308759Y203482D01*
Y203971D01*
X308635Y204592D01*
X308284Y205118D01*
X307592Y205810D01*
X307066Y206161D01*
X306546Y206264D01*
Y213947D01*
X303822D01*
Y214718D01*
X303698Y215339D01*
X303347Y215865D01*
X282228Y236984D01*
X281702Y237335D01*
X281081Y237459D01*
D02*
G37*
G36*
X120409Y209209D02*
X118748D01*
Y206154D01*
X118919Y205293D01*
X119407Y204562D01*
X120138Y204074D01*
X120409Y204020D01*
Y209209D01*
D02*
G37*
G36*
X209490Y205225D02*
Y201491D01*
X213225D01*
X212936Y202572D01*
X212365Y203559D01*
X211559Y204365D01*
X210572Y204936D01*
X209490Y205225D01*
D02*
G37*
G36*
X208310D02*
X207228Y204936D01*
X206241Y204365D01*
X205435Y203559D01*
X204864Y202572D01*
X204575Y201491D01*
X208310D01*
Y205225D01*
D02*
G37*
G36*
X213225Y200309D02*
X209490D01*
Y196575D01*
X210572Y196864D01*
X211559Y197435D01*
X212365Y198241D01*
X212936Y199228D01*
X213225Y200309D01*
D02*
G37*
G36*
X208310D02*
X204575D01*
X204864Y199228D01*
X205435Y198241D01*
X206241Y197435D01*
X207228Y196864D01*
X208310Y196575D01*
Y200309D01*
D02*
G37*
G36*
X209490Y195225D02*
Y191491D01*
X213225D01*
X212936Y192572D01*
X212365Y193559D01*
X211559Y194365D01*
X210572Y194936D01*
X209490Y195225D01*
D02*
G37*
G36*
X208310D02*
X207228Y194936D01*
X206241Y194365D01*
X205435Y193559D01*
X204864Y192572D01*
X204575Y191491D01*
X208310D01*
Y195225D01*
D02*
G37*
G36*
X213225Y190309D02*
X209490D01*
Y186575D01*
X210572Y186864D01*
X211559Y187435D01*
X212365Y188241D01*
X212936Y189228D01*
X213225Y190309D01*
D02*
G37*
G36*
X208310D02*
X204575D01*
X204864Y189228D01*
X205435Y188241D01*
X206241Y187435D01*
X207228Y186864D01*
X208310Y186575D01*
Y190309D01*
D02*
G37*
G36*
X269472Y195246D02*
X268328D01*
X267222Y194950D01*
X266231Y194378D01*
X265422Y193568D01*
X264850Y192577D01*
X264553Y191472D01*
Y190327D01*
X264850Y189222D01*
X265422Y188231D01*
X266231Y187422D01*
X267222Y186849D01*
X268328Y186553D01*
X269472D01*
X270578Y186849D01*
X271569Y187422D01*
X272378Y188231D01*
X272950Y189222D01*
X273247Y190327D01*
Y191472D01*
X272950Y192577D01*
X272378Y193568D01*
X271569Y194378D01*
X270578Y194950D01*
X269472Y195246D01*
D02*
G37*
G36*
X269491Y185225D02*
Y181490D01*
X273225D01*
X272936Y182571D01*
X272365Y183559D01*
X271559Y184365D01*
X270572Y184935D01*
X269491Y185225D01*
D02*
G37*
G36*
X268309D02*
X267228Y184935D01*
X266241Y184365D01*
X265435Y183559D01*
X264864Y182571D01*
X264575Y181490D01*
X268309D01*
Y185225D01*
D02*
G37*
G36*
X291610Y183925D02*
X290528Y183636D01*
X289541Y183065D01*
X288735Y182259D01*
X288164Y181272D01*
X287875Y180191D01*
X291610D01*
Y183925D01*
D02*
G37*
G36*
X273225Y180309D02*
X269491D01*
Y176574D01*
X270572Y176864D01*
X271559Y177434D01*
X272365Y178241D01*
X272936Y179228D01*
X273225Y180309D01*
D02*
G37*
G36*
X268309D02*
X264575D01*
X264864Y179228D01*
X265435Y178241D01*
X266241Y177434D01*
X267228Y176864D01*
X268309Y176574D01*
Y180309D01*
D02*
G37*
G36*
X209472Y185247D02*
X208328D01*
X207222Y184950D01*
X206231Y184378D01*
X205422Y183569D01*
X204850Y182578D01*
X204554Y181472D01*
Y180328D01*
X204850Y179222D01*
X205422Y178231D01*
X206231Y177422D01*
X207222Y176850D01*
X208328Y176553D01*
X209472D01*
X210578Y176850D01*
X211569Y177422D01*
X212378Y178231D01*
X212950Y179222D01*
X213246Y180328D01*
Y181472D01*
X212950Y182578D01*
X212378Y183569D01*
X211569Y184378D01*
X210578Y184950D01*
X209472Y185247D01*
D02*
G37*
G36*
X291610Y179009D02*
X287875D01*
X288164Y177928D01*
X288735Y176941D01*
X289541Y176135D01*
X290528Y175564D01*
X291610Y175275D01*
Y179009D01*
D02*
G37*
G36*
X112620Y179753D02*
X111580D01*
X110574Y179483D01*
X109673Y178963D01*
X108937Y178227D01*
X108417Y177326D01*
X108147Y176320D01*
Y175280D01*
X108417Y174274D01*
X108937Y173373D01*
X109673Y172637D01*
X110574Y172117D01*
X111580Y171847D01*
X112620D01*
X113626Y172117D01*
X114527Y172637D01*
X115263Y173373D01*
X115783Y174274D01*
X116053Y175280D01*
Y176320D01*
X115783Y177326D01*
X115263Y178227D01*
X114527Y178963D01*
X113626Y179483D01*
X112620Y179753D01*
D02*
G37*
G36*
X92620D02*
X91580D01*
X90574Y179483D01*
X89673Y178963D01*
X88937Y178227D01*
X88417Y177326D01*
X88147Y176320D01*
Y175280D01*
X88417Y174274D01*
X88937Y173373D01*
X89673Y172637D01*
X90574Y172117D01*
X91580Y171847D01*
X92620D01*
X93626Y172117D01*
X94527Y172637D01*
X95263Y173373D01*
X95783Y174274D01*
X96053Y175280D01*
Y176320D01*
X95783Y177326D01*
X95263Y178227D01*
X94527Y178963D01*
X93626Y179483D01*
X92620Y179753D01*
D02*
G37*
G36*
X82620D02*
X81580D01*
X80574Y179483D01*
X79673Y178963D01*
X78937Y178227D01*
X78417Y177326D01*
X78147Y176320D01*
Y175280D01*
X78417Y174274D01*
X78937Y173373D01*
X79673Y172637D01*
X80574Y172117D01*
X81580Y171847D01*
X82620D01*
X83626Y172117D01*
X84527Y172637D01*
X85263Y173373D01*
X85783Y174274D01*
X86053Y175280D01*
Y176320D01*
X85783Y177326D01*
X85263Y178227D01*
X84527Y178963D01*
X83626Y179483D01*
X82620Y179753D01*
D02*
G37*
G36*
X209472Y175247D02*
X208328D01*
X207222Y174950D01*
X206231Y174378D01*
X205422Y173569D01*
X204850Y172578D01*
X204554Y171472D01*
Y170328D01*
X204850Y169222D01*
X205422Y168231D01*
X206231Y167422D01*
X207222Y166850D01*
X208328Y166553D01*
X209472D01*
X210578Y166850D01*
X211569Y167422D01*
X212378Y168231D01*
X212950Y169222D01*
X213246Y170328D01*
Y171472D01*
X212950Y172578D01*
X212378Y173569D01*
X211569Y174378D01*
X210578Y174950D01*
X209472Y175247D01*
D02*
G37*
G36*
X269472Y175246D02*
X268328D01*
X267222Y174950D01*
X266231Y174378D01*
X265422Y173568D01*
X264850Y172577D01*
X264553Y171472D01*
Y170327D01*
X264850Y169222D01*
X265422Y168231D01*
X266231Y167422D01*
X267222Y166849D01*
X268328Y166553D01*
X269472D01*
X270578Y166849D01*
X271569Y167422D01*
X272378Y168231D01*
X272950Y169222D01*
X273247Y170327D01*
Y171472D01*
X272950Y172577D01*
X272378Y173568D01*
X271569Y174378D01*
X270578Y174950D01*
X269472Y175246D01*
D02*
G37*
G36*
X61610Y169009D02*
X57875D01*
X58164Y167928D01*
X58735Y166941D01*
X59541Y166135D01*
X60528Y165564D01*
X61610Y165275D01*
Y169009D01*
D02*
G37*
G36*
X52772Y173946D02*
X51628D01*
X50522Y173650D01*
X49531Y173078D01*
X48722Y172269D01*
X48150Y171278D01*
X47854Y170172D01*
Y169028D01*
X48150Y167922D01*
X48722Y166931D01*
X49531Y166122D01*
X50522Y165550D01*
X51628Y165253D01*
X52772D01*
X53878Y165550D01*
X54869Y166122D01*
X55678Y166931D01*
X56250Y167922D01*
X56546Y169028D01*
Y170172D01*
X56250Y171278D01*
X55678Y172269D01*
X54869Y173078D01*
X53878Y173650D01*
X52772Y173946D01*
D02*
G37*
G36*
X209472Y165246D02*
X208328D01*
X207222Y164950D01*
X206231Y164378D01*
X205422Y163569D01*
X204850Y162578D01*
X204554Y161472D01*
Y160328D01*
X204850Y159222D01*
X205422Y158231D01*
X206231Y157422D01*
X207222Y156850D01*
X208328Y156553D01*
X209472D01*
X210578Y156850D01*
X211569Y157422D01*
X212378Y158231D01*
X212950Y159222D01*
X213246Y160328D01*
Y161472D01*
X212950Y162578D01*
X212378Y163569D01*
X211569Y164378D01*
X210578Y164950D01*
X209472Y165246D01*
D02*
G37*
G36*
X269472Y165246D02*
X268328D01*
X267222Y164950D01*
X266231Y164378D01*
X265422Y163568D01*
X264850Y162577D01*
X264553Y161472D01*
Y160327D01*
X264850Y159222D01*
X265422Y158231D01*
X266231Y157422D01*
X267222Y156849D01*
X268328Y156553D01*
X269472D01*
X270578Y156849D01*
X271569Y157422D01*
X272378Y158231D01*
X272950Y159222D01*
X273247Y160327D01*
Y161472D01*
X272950Y162577D01*
X272378Y163568D01*
X271569Y164378D01*
X270578Y164950D01*
X269472Y165246D01*
D02*
G37*
G36*
X52772Y163946D02*
X51628D01*
X50522Y163650D01*
X49531Y163078D01*
X48722Y162269D01*
X48150Y161278D01*
X47854Y160172D01*
Y159028D01*
X48150Y157922D01*
X48722Y156931D01*
X49531Y156122D01*
X50522Y155550D01*
X51628Y155254D01*
X52772D01*
X53878Y155550D01*
X54869Y156122D01*
X55678Y156931D01*
X56250Y157922D01*
X56546Y159028D01*
Y160172D01*
X56250Y161278D01*
X55678Y162269D01*
X54869Y163078D01*
X53878Y163650D01*
X52772Y163946D01*
D02*
G37*
G36*
X209472Y155246D02*
X208328D01*
X207222Y154950D01*
X206231Y154378D01*
X205422Y153569D01*
X204850Y152578D01*
X204554Y151472D01*
Y150328D01*
X204850Y149222D01*
X205422Y148231D01*
X206231Y147422D01*
X207222Y146850D01*
X208328Y146554D01*
X209472D01*
X210578Y146850D01*
X211569Y147422D01*
X212378Y148231D01*
X212950Y149222D01*
X213246Y150328D01*
Y151472D01*
X212950Y152578D01*
X212378Y153569D01*
X211569Y154378D01*
X210578Y154950D01*
X209472Y155246D01*
D02*
G37*
G36*
X269472Y155246D02*
X268328D01*
X267222Y154950D01*
X266231Y154378D01*
X265422Y153568D01*
X264850Y152577D01*
X264553Y151472D01*
Y150327D01*
X264850Y149222D01*
X265422Y148231D01*
X266231Y147422D01*
X267222Y146849D01*
X268328Y146553D01*
X269472D01*
X270578Y146849D01*
X271569Y147422D01*
X272378Y148231D01*
X272950Y149222D01*
X273247Y150327D01*
Y151472D01*
X272950Y152577D01*
X272378Y153568D01*
X271569Y154378D01*
X270578Y154950D01*
X269472Y155246D01*
D02*
G37*
G36*
X52772Y153946D02*
X51628D01*
X50522Y153650D01*
X49531Y153078D01*
X48722Y152269D01*
X48150Y151278D01*
X47854Y150172D01*
Y149028D01*
X48150Y147922D01*
X48722Y146931D01*
X49531Y146122D01*
X50522Y145550D01*
X51628Y145254D01*
X52772D01*
X53878Y145550D01*
X54869Y146122D01*
X55678Y146931D01*
X56250Y147922D01*
X56546Y149028D01*
Y150172D01*
X56250Y151278D01*
X55678Y152269D01*
X54869Y153078D01*
X53878Y153650D01*
X52772Y153946D01*
D02*
G37*
G36*
X122620Y150166D02*
X121580D01*
X120574Y149897D01*
X119673Y149376D01*
X118937Y148641D01*
X118417Y147739D01*
X118147Y146734D01*
Y145693D01*
X118417Y144688D01*
X118937Y143786D01*
X119673Y143050D01*
X120574Y142530D01*
X121580Y142261D01*
X122620D01*
X123626Y142530D01*
X124527Y143050D01*
X125263Y143786D01*
X125783Y144688D01*
X126053Y145693D01*
Y146734D01*
X125783Y147739D01*
X125263Y148641D01*
X124527Y149376D01*
X123626Y149897D01*
X122620Y150166D01*
D02*
G37*
G36*
X85106Y160959D02*
X79168D01*
Y153841D01*
X80478D01*
Y150166D01*
X78147D01*
Y142261D01*
X86053D01*
Y150166D01*
X83722D01*
Y153841D01*
X85106D01*
Y160959D01*
D02*
G37*
G36*
X209472Y145247D02*
X208328D01*
X207222Y144950D01*
X206231Y144378D01*
X205422Y143569D01*
X204850Y142578D01*
X204554Y141472D01*
Y140328D01*
X204850Y139222D01*
X205422Y138231D01*
X206231Y137422D01*
X207222Y136850D01*
X208328Y136554D01*
X209472D01*
X210578Y136850D01*
X211569Y137422D01*
X212378Y138231D01*
X212950Y139222D01*
X213246Y140328D01*
Y141472D01*
X212950Y142578D01*
X212378Y143569D01*
X211569Y144378D01*
X210578Y144950D01*
X209472Y145247D01*
D02*
G37*
G36*
X269472Y145246D02*
X268328D01*
X267222Y144950D01*
X266231Y144378D01*
X265422Y143568D01*
X264850Y142577D01*
X264553Y141472D01*
Y140327D01*
X264850Y139222D01*
X265422Y138231D01*
X266231Y137422D01*
X267222Y136849D01*
X268328Y136553D01*
X269472D01*
X270578Y136849D01*
X271569Y137422D01*
X272378Y138231D01*
X272950Y139222D01*
X273247Y140327D01*
Y141472D01*
X272950Y142577D01*
X272378Y143568D01*
X271569Y144378D01*
X270578Y144950D01*
X269472Y145246D01*
D02*
G37*
G36*
X52772Y143947D02*
X51628D01*
X50522Y143650D01*
X49531Y143078D01*
X48722Y142269D01*
X48150Y141278D01*
X47854Y140172D01*
Y139028D01*
X48150Y137922D01*
X48722Y136931D01*
X49531Y136122D01*
X50522Y135550D01*
X51628Y135254D01*
X52772D01*
X53878Y135550D01*
X54869Y136122D01*
X55678Y136931D01*
X56250Y137922D01*
X56546Y139028D01*
Y140172D01*
X56250Y141278D01*
X55678Y142269D01*
X54869Y143078D01*
X53878Y143650D01*
X52772Y143947D01*
D02*
G37*
G36*
X157239Y156075D02*
X156561D01*
X155906Y155899D01*
X155319Y155560D01*
X154840Y155081D01*
X154501Y154494D01*
X154325Y153839D01*
Y153161D01*
X154501Y152506D01*
X154840Y151919D01*
X155319Y151440D01*
X155906Y151101D01*
X156561Y150925D01*
X157181D01*
X164053Y144053D01*
X164579Y143702D01*
X165200Y143578D01*
X171941D01*
Y142232D01*
X179059D01*
Y143578D01*
X185700D01*
X186321Y143702D01*
X186847Y144053D01*
X191216Y148423D01*
X191678Y148232D01*
Y143533D01*
X191253Y143108D01*
X190902Y142582D01*
X190778Y141962D01*
Y134420D01*
X190340Y133981D01*
X190001Y133394D01*
X189825Y132739D01*
Y132061D01*
X190001Y131406D01*
X190340Y130819D01*
X190819Y130340D01*
X191406Y130001D01*
X192061Y129825D01*
X192739D01*
X193394Y130001D01*
X193981Y130340D01*
X194460Y130819D01*
X194799Y131406D01*
X194975Y132061D01*
Y132739D01*
X194799Y133394D01*
X194460Y133981D01*
X194022Y134420D01*
Y141290D01*
X194447Y141715D01*
X194798Y142241D01*
X194922Y142862D01*
Y150780D01*
X195360Y151219D01*
X195699Y151806D01*
X195875Y152461D01*
Y153139D01*
X195699Y153794D01*
X195360Y154381D01*
X194881Y154860D01*
X194294Y155199D01*
X193639Y155375D01*
X192961D01*
X192306Y155199D01*
X191719Y154860D01*
X191240Y154381D01*
X190901Y153794D01*
X190725Y153139D01*
Y152519D01*
X185028Y146822D01*
X179059D01*
Y148169D01*
X171941D01*
Y146822D01*
X165872D01*
X159475Y153219D01*
Y153839D01*
X159299Y154494D01*
X158960Y155081D01*
X158481Y155560D01*
X157894Y155899D01*
X157239Y156075D01*
D02*
G37*
G36*
X209472Y135247D02*
X208328D01*
X207222Y134950D01*
X206231Y134378D01*
X205422Y133569D01*
X204850Y132578D01*
X204554Y131472D01*
Y130328D01*
X204850Y129222D01*
X205422Y128231D01*
X206231Y127422D01*
X207222Y126850D01*
X208328Y126553D01*
X209472D01*
X210578Y126850D01*
X211569Y127422D01*
X212378Y128231D01*
X212950Y129222D01*
X213246Y130328D01*
Y131472D01*
X212950Y132578D01*
X212378Y133569D01*
X211569Y134378D01*
X210578Y134950D01*
X209472Y135247D01*
D02*
G37*
G36*
X269472Y135246D02*
X268328D01*
X267222Y134950D01*
X266231Y134378D01*
X265422Y133568D01*
X264850Y132577D01*
X264553Y131472D01*
Y130327D01*
X264850Y129222D01*
X265422Y128231D01*
X266231Y127422D01*
X267222Y126849D01*
X268328Y126553D01*
X269472D01*
X270578Y126849D01*
X271569Y127422D01*
X272378Y128231D01*
X272950Y129222D01*
X273247Y130327D01*
Y131472D01*
X272950Y132577D01*
X272378Y133568D01*
X271569Y134378D01*
X270578Y134950D01*
X269472Y135246D01*
D02*
G37*
G36*
X52772Y133947D02*
X51628D01*
X50522Y133650D01*
X49531Y133078D01*
X48722Y132269D01*
X48150Y131278D01*
X47854Y130172D01*
Y129028D01*
X48150Y127922D01*
X48722Y126931D01*
X49531Y126122D01*
X50522Y125550D01*
X51628Y125253D01*
X52772D01*
X53878Y125550D01*
X54869Y126122D01*
X55678Y126931D01*
X56250Y127922D01*
X56546Y129028D01*
Y130172D01*
X56250Y131278D01*
X55678Y132269D01*
X54869Y133078D01*
X53878Y133650D01*
X52772Y133947D01*
D02*
G37*
G36*
X269491Y125225D02*
Y121490D01*
X273225D01*
X272936Y122571D01*
X272365Y123559D01*
X271559Y124365D01*
X270572Y124935D01*
X269491Y125225D01*
D02*
G37*
G36*
X268309D02*
X267228Y124935D01*
X266241Y124365D01*
X265435Y123559D01*
X264864Y122571D01*
X264575Y121490D01*
X268309D01*
Y125225D01*
D02*
G37*
G36*
X52790Y123925D02*
Y120191D01*
X56525D01*
X56236Y121272D01*
X55665Y122259D01*
X54859Y123065D01*
X53872Y123636D01*
X52790Y123925D01*
D02*
G37*
G36*
X51609D02*
X50528Y123636D01*
X49541Y123065D01*
X48735Y122259D01*
X48164Y121272D01*
X47875Y120191D01*
X51609D01*
Y123925D01*
D02*
G37*
G36*
X273225Y120309D02*
X269491D01*
Y116574D01*
X270572Y116864D01*
X271559Y117434D01*
X272365Y118240D01*
X272936Y119228D01*
X273225Y120309D01*
D02*
G37*
G36*
X268309D02*
X264575D01*
X264864Y119228D01*
X265435Y118240D01*
X266241Y117434D01*
X267228Y116864D01*
X268309Y116574D01*
Y120309D01*
D02*
G37*
G36*
X209472Y125247D02*
X208328D01*
X207222Y124950D01*
X206231Y124378D01*
X205422Y123569D01*
X204850Y122578D01*
X204554Y121472D01*
Y120328D01*
X204850Y119222D01*
X205422Y118231D01*
X206231Y117422D01*
X207222Y116850D01*
X208328Y116553D01*
X209472D01*
X210578Y116850D01*
X211569Y117422D01*
X212378Y118231D01*
X212950Y119222D01*
X213246Y120328D01*
Y121472D01*
X212950Y122578D01*
X212378Y123569D01*
X211569Y124378D01*
X210578Y124950D01*
X209472Y125247D01*
D02*
G37*
G36*
X56525Y119009D02*
X52790D01*
Y115275D01*
X53872Y115564D01*
X54859Y116135D01*
X55665Y116941D01*
X56236Y117928D01*
X56525Y119009D01*
D02*
G37*
G36*
X291610D02*
X287875D01*
X288164Y117928D01*
X288735Y116941D01*
X289541Y116135D01*
X290528Y115564D01*
X291610Y115275D01*
Y119009D01*
D02*
G37*
G36*
X51609D02*
X47875D01*
X48164Y117928D01*
X48735Y116941D01*
X49541Y116135D01*
X50528Y115564D01*
X51609Y115275D01*
Y119009D01*
D02*
G37*
G36*
X259240Y115374D02*
X258562D01*
X257907Y115199D01*
X257320Y114860D01*
X256881Y114421D01*
X204019D01*
X203580Y114860D01*
X202993Y115199D01*
X202338Y115374D01*
X201660D01*
X201006Y115199D01*
X200418Y114860D01*
X199939Y114380D01*
X199600Y113793D01*
X199425Y113138D01*
Y112460D01*
X199600Y111805D01*
X199939Y111218D01*
X200418Y110739D01*
X201006Y110400D01*
X201660Y110224D01*
X202338D01*
X202993Y110400D01*
X203580Y110739D01*
X204019Y111178D01*
X256881D01*
X257320Y110739D01*
X257907Y110400D01*
X258562Y110224D01*
X259240D01*
X259894Y110400D01*
X260482Y110739D01*
X260961Y111218D01*
X261300Y111805D01*
X261475Y112460D01*
Y113138D01*
X261300Y113793D01*
X260961Y114380D01*
X260482Y114860D01*
X259894Y115199D01*
X259240Y115374D01*
D02*
G37*
G36*
X291610Y113925D02*
X290528Y113636D01*
X289541Y113065D01*
X288735Y112259D01*
X288164Y111272D01*
X287875Y110191D01*
X291610D01*
Y113925D01*
D02*
G37*
G36*
Y109009D02*
X287875D01*
X288164Y107928D01*
X288735Y106941D01*
X289541Y106135D01*
X290528Y105564D01*
X291610Y105275D01*
Y109009D01*
D02*
G37*
G36*
X52772Y113946D02*
X51628D01*
X50522Y113650D01*
X49531Y113078D01*
X48722Y112269D01*
X48150Y111278D01*
X47854Y110172D01*
Y109028D01*
X48150Y107922D01*
X48722Y106931D01*
X49531Y106122D01*
X50522Y105550D01*
X51628Y105254D01*
X52772D01*
X53878Y105550D01*
X54869Y106122D01*
X55678Y106931D01*
X56250Y107922D01*
X56546Y109028D01*
Y110172D01*
X56250Y111278D01*
X55678Y112269D01*
X54869Y113078D01*
X53878Y113650D01*
X52772Y113946D01*
D02*
G37*
G36*
X158039Y116275D02*
X157361D01*
X156706Y116099D01*
X156119Y115760D01*
X155640Y115281D01*
X155301Y114694D01*
X155125Y114039D01*
Y113361D01*
X155301Y112706D01*
X155640Y112119D01*
X156119Y111640D01*
X156706Y111301D01*
X157361Y111125D01*
X158039D01*
X158694Y111301D01*
X159281Y111640D01*
X159720Y112078D01*
X169028D01*
X175625Y105481D01*
Y104861D01*
X175801Y104206D01*
X176140Y103619D01*
X176619Y103140D01*
X177206Y102801D01*
X177861Y102625D01*
X178539D01*
X179194Y102801D01*
X179781Y103140D01*
X180260Y103619D01*
X180599Y104206D01*
X180775Y104861D01*
Y105539D01*
X180599Y106194D01*
X180260Y106781D01*
X179781Y107260D01*
X179194Y107599D01*
X178539Y107775D01*
X177919D01*
X170847Y114847D01*
X170321Y115198D01*
X169700Y115322D01*
X159720D01*
X159281Y115760D01*
X158694Y116099D01*
X158039Y116275D01*
D02*
G37*
G36*
X92220Y125053D02*
X91180D01*
X90174Y124783D01*
X89273Y124263D01*
X88537Y123527D01*
X88017Y122626D01*
X87747Y121620D01*
Y120580D01*
X88017Y119574D01*
X88537Y118673D01*
X89273Y117937D01*
X90174Y117417D01*
X91180Y117147D01*
X92220D01*
X93119Y117388D01*
X98441Y112065D01*
Y107159D01*
X96694D01*
Y100041D01*
X102631D01*
Y107159D01*
X101685D01*
Y112737D01*
X101561Y113358D01*
X101210Y113884D01*
X95412Y119681D01*
X95653Y120580D01*
Y121620D01*
X95383Y122626D01*
X94863Y123527D01*
X94127Y124263D01*
X93226Y124783D01*
X92220Y125053D01*
D02*
G37*
G36*
X112220D02*
X111180D01*
X110174Y124783D01*
X109273Y124263D01*
X108537Y123527D01*
X108017Y122626D01*
X107747Y121620D01*
Y120580D01*
X108017Y119574D01*
X108537Y118673D01*
X109273Y117937D01*
X110174Y117417D01*
X111180Y117147D01*
X112220D01*
X113119Y117388D01*
X116441Y114065D01*
Y106959D01*
X115094D01*
Y99841D01*
X121031D01*
Y106959D01*
X119685D01*
Y114737D01*
X119561Y115358D01*
X119210Y115884D01*
X115412Y119681D01*
X115653Y120580D01*
Y121620D01*
X115383Y122626D01*
X114863Y123527D01*
X114127Y124263D01*
X113226Y124783D01*
X112220Y125053D01*
D02*
G37*
G36*
X82220D02*
X81180D01*
X80174Y124783D01*
X79273Y124263D01*
X78537Y123527D01*
X78017Y122626D01*
X77747Y121620D01*
Y120580D01*
X78017Y119574D01*
X78537Y118673D01*
X79273Y117937D01*
X80078Y117472D01*
Y106659D01*
X78694D01*
Y99541D01*
X84632D01*
Y106659D01*
X83322D01*
Y117472D01*
X84127Y117937D01*
X84863Y118673D01*
X85383Y119574D01*
X85653Y120580D01*
Y121620D01*
X85383Y122626D01*
X84863Y123527D01*
X84127Y124263D01*
X83226Y124783D01*
X82220Y125053D01*
D02*
G37*
G36*
X52772Y103946D02*
X51628D01*
X50522Y103650D01*
X49531Y103078D01*
X48722Y102269D01*
X48150Y101278D01*
X47854Y100172D01*
Y99028D01*
X48150Y97922D01*
X48722Y96931D01*
X49531Y96122D01*
X50522Y95550D01*
X51628Y95253D01*
X52772D01*
X53878Y95550D01*
X54869Y96122D01*
X55678Y96931D01*
X56250Y97922D01*
X56546Y99028D01*
Y100172D01*
X56250Y101278D01*
X55678Y102269D01*
X54869Y103078D01*
X53878Y103650D01*
X52772Y103946D01*
D02*
G37*
G36*
X85653Y95466D02*
X77747D01*
Y87561D01*
X85653D01*
Y95466D01*
D02*
G37*
G36*
X224639Y102675D02*
X223961D01*
X223306Y102499D01*
X222719Y102160D01*
X222240Y101681D01*
X221901Y101094D01*
X221725Y100439D01*
Y99761D01*
X221901Y99106D01*
X222240Y98519D01*
X222719Y98040D01*
X223306Y97701D01*
X223961Y97525D01*
X224581D01*
X234553Y87553D01*
X235079Y87202D01*
X235700Y87078D01*
X250780D01*
X251219Y86640D01*
X251806Y86301D01*
X252461Y86125D01*
X253139D01*
X253794Y86301D01*
X254381Y86640D01*
X254860Y87119D01*
X255199Y87706D01*
X255375Y88361D01*
Y89039D01*
X255199Y89694D01*
X254860Y90281D01*
X254381Y90760D01*
X253794Y91099D01*
X253139Y91275D01*
X252461D01*
X251806Y91099D01*
X251219Y90760D01*
X250780Y90322D01*
X236372D01*
X226875Y99819D01*
Y100439D01*
X226699Y101094D01*
X226360Y101681D01*
X225881Y102160D01*
X225294Y102499D01*
X224639Y102675D01*
D02*
G37*
G36*
X52772Y93946D02*
X51628D01*
X50522Y93650D01*
X49531Y93078D01*
X48722Y92269D01*
X48150Y91278D01*
X47854Y90172D01*
Y89028D01*
X48150Y87922D01*
X48722Y86931D01*
X49531Y86122D01*
X50522Y85550D01*
X51628Y85254D01*
X52772D01*
X53878Y85550D01*
X54869Y86122D01*
X55678Y86931D01*
X56250Y87922D01*
X56546Y89028D01*
Y90172D01*
X56250Y91278D01*
X55678Y92269D01*
X54869Y93078D01*
X53878Y93650D01*
X52772Y93946D01*
D02*
G37*
G36*
X62772Y83947D02*
X61628D01*
X60522Y83650D01*
X59531Y83078D01*
X58722Y82269D01*
X58150Y81278D01*
X57854Y80172D01*
Y79028D01*
X58150Y77922D01*
X58722Y76931D01*
X59531Y76122D01*
X60522Y75550D01*
X61628Y75253D01*
X62772D01*
X63878Y75550D01*
X64869Y76122D01*
X65678Y76931D01*
X66250Y77922D01*
X66546Y79028D01*
Y80172D01*
X66250Y81278D01*
X65678Y82269D01*
X64869Y83078D01*
X63878Y83650D01*
X62772Y83947D01*
D02*
G37*
G36*
X52772D02*
X51628D01*
X50522Y83650D01*
X49531Y83078D01*
X48722Y82269D01*
X48150Y81278D01*
X47854Y80172D01*
Y79028D01*
X48150Y77922D01*
X48722Y76931D01*
X49531Y76122D01*
X50522Y75550D01*
X51628Y75253D01*
X52772D01*
X53878Y75550D01*
X54869Y76122D01*
X55678Y76931D01*
X56250Y77922D01*
X56546Y79028D01*
Y80172D01*
X56250Y81278D01*
X55678Y82269D01*
X54869Y83078D01*
X53878Y83650D01*
X52772Y83947D01*
D02*
G37*
G36*
X110505Y107159D02*
X104569D01*
Y100041D01*
X108212D01*
X112334Y95919D01*
X112080Y95466D01*
X111180D01*
X110174Y95197D01*
X109273Y94676D01*
X108537Y93940D01*
X108017Y93039D01*
X107747Y92034D01*
Y90993D01*
X108017Y89988D01*
X108537Y89086D01*
X109273Y88350D01*
X110174Y87830D01*
X111180Y87561D01*
X112220D01*
X113226Y87830D01*
X114127Y88350D01*
X114863Y89086D01*
X115429Y89066D01*
X124878Y79616D01*
Y75023D01*
X124404Y74314D01*
X124255Y73562D01*
X123745D01*
X123596Y74314D01*
X123104Y75049D01*
X122368Y75541D01*
X121500Y75714D01*
X120632Y75541D01*
X119896Y75049D01*
X119513Y74477D01*
X114605D01*
X101983Y87099D01*
X102174Y87561D01*
X102220D01*
X103226Y87830D01*
X104127Y88350D01*
X104863Y89086D01*
X105383Y89988D01*
X105653Y90993D01*
Y92034D01*
X105383Y93039D01*
X104863Y93940D01*
X104127Y94676D01*
X103226Y95197D01*
X102220Y95466D01*
X101180D01*
X100174Y95197D01*
X99273Y94676D01*
X98537Y93940D01*
X98365Y93643D01*
X97865Y93777D01*
Y94285D01*
X97742Y94906D01*
X97390Y95432D01*
X92506Y100316D01*
Y106659D01*
X86568D01*
Y99541D01*
X88694D01*
X92303Y95932D01*
X92062Y95466D01*
X91180D01*
X90174Y95197D01*
X89273Y94676D01*
X88537Y93940D01*
X88017Y93039D01*
X87747Y92034D01*
Y90993D01*
X88017Y89988D01*
X88537Y89086D01*
X89273Y88350D01*
X90174Y87830D01*
X91180Y87561D01*
X92220D01*
X93226Y87830D01*
X94127Y88350D01*
X94863Y89086D01*
X95429Y89066D01*
X112786Y71708D01*
X113313Y71357D01*
X113933Y71233D01*
X119232D01*
Y66154D01*
X119327Y65673D01*
X118867Y65427D01*
X117575Y66719D01*
Y67339D01*
X117399Y67994D01*
X117060Y68581D01*
X116581Y69060D01*
X115994Y69399D01*
X115339Y69575D01*
X114661D01*
X114006Y69399D01*
X113419Y69060D01*
X112940Y68581D01*
X112601Y67994D01*
X112425Y67339D01*
Y66661D01*
X112601Y66006D01*
X112940Y65419D01*
X113419Y64940D01*
X114006Y64601D01*
X114661Y64425D01*
X115281D01*
X117385Y62322D01*
X117202Y61822D01*
X92020D01*
X91581Y62260D01*
X90994Y62599D01*
X90339Y62775D01*
X89661D01*
X89006Y62599D01*
X88419Y62260D01*
X87940Y61781D01*
X87601Y61194D01*
X87425Y60539D01*
Y59861D01*
X87601Y59206D01*
X87940Y58619D01*
X88419Y58140D01*
X89006Y57801D01*
X89661Y57625D01*
X90339D01*
X90994Y57801D01*
X91581Y58140D01*
X92020Y58578D01*
X148542D01*
X149162Y58702D01*
X149689Y59053D01*
X152647Y62011D01*
X152998Y62537D01*
X153122Y63158D01*
Y64577D01*
X153596Y65286D01*
X153745Y66038D01*
X154255D01*
X154404Y65286D01*
X154896Y64551D01*
X155632Y64059D01*
X156500Y63886D01*
X157368Y64059D01*
X158104Y64551D01*
X158596Y65286D01*
X158768Y66154D01*
Y67477D01*
X183682D01*
X183719Y67440D01*
X184306Y67101D01*
X184961Y66925D01*
X185639D01*
X186294Y67101D01*
X186881Y67440D01*
X187360Y67919D01*
X187699Y68506D01*
X187875Y69161D01*
Y69839D01*
X187699Y70494D01*
X187360Y71081D01*
X186881Y71560D01*
X186294Y71899D01*
X185639Y72075D01*
X184961D01*
X184306Y71899D01*
X183719Y71560D01*
X183682Y71523D01*
X158768D01*
Y73445D01*
X158596Y74314D01*
X158573Y74347D01*
Y77332D01*
X158660Y77419D01*
X158999Y78006D01*
X159175Y78661D01*
Y79339D01*
X158999Y79994D01*
X158660Y80581D01*
X158181Y81060D01*
X157594Y81399D01*
X156939Y81575D01*
X156261D01*
X155606Y81399D01*
X155019Y81060D01*
X154540Y80581D01*
X154201Y79994D01*
X154025Y79339D01*
Y78661D01*
X154201Y78006D01*
X154527Y77441D01*
Y74497D01*
X154404Y74314D01*
X154255Y73562D01*
X153745D01*
X153596Y74314D01*
X153104Y75049D01*
X152368Y75541D01*
X151500Y75714D01*
X150632Y75541D01*
X149896Y75049D01*
X149404Y74314D01*
X149255Y73562D01*
X148745D01*
X148596Y74314D01*
X148104Y75049D01*
X147368Y75541D01*
X146500Y75714D01*
X145632Y75541D01*
X144896Y75049D01*
X144404Y74314D01*
X144255Y73562D01*
X143745D01*
X143596Y74314D01*
X143122Y75023D01*
Y79252D01*
X145747Y81877D01*
X146098Y82403D01*
X146222Y83024D01*
Y99980D01*
X146660Y100419D01*
X146999Y101006D01*
X147175Y101661D01*
Y102339D01*
X146999Y102994D01*
X146660Y103581D01*
X146181Y104060D01*
X145594Y104399D01*
X144939Y104575D01*
X144261D01*
X143606Y104399D01*
X143019Y104060D01*
X142540Y103581D01*
X142201Y102994D01*
X142025Y102339D01*
Y101661D01*
X142201Y101006D01*
X142540Y100419D01*
X142978Y99980D01*
Y83695D01*
X142100Y82817D01*
X141652Y83076D01*
X141675Y83161D01*
Y83839D01*
X141499Y84494D01*
X141160Y85081D01*
X140681Y85560D01*
X140094Y85899D01*
X139439Y86075D01*
X138761D01*
X138106Y85899D01*
X137519Y85560D01*
X137040Y85081D01*
X136701Y84494D01*
X136525Y83839D01*
Y83219D01*
X135353Y82047D01*
X135002Y81521D01*
X134878Y80900D01*
Y75023D01*
X134404Y74314D01*
X134255Y73562D01*
X133745D01*
X133596Y74314D01*
X133122Y75023D01*
Y88139D01*
X132998Y88759D01*
X132647Y89285D01*
X127559Y94373D01*
Y99841D01*
X128905D01*
Y106959D01*
X122968D01*
Y99841D01*
X124315D01*
Y95145D01*
X123815Y94856D01*
X123226Y95197D01*
X122220Y95466D01*
X121180D01*
X120174Y95197D01*
X119273Y94676D01*
X118537Y93940D01*
X118365Y93643D01*
X117865Y93777D01*
Y94303D01*
X117742Y94924D01*
X117390Y95450D01*
X110505Y102334D01*
Y107159D01*
D02*
G37*
G36*
X52772Y73946D02*
X51628D01*
X50522Y73650D01*
X49531Y73078D01*
X48722Y72269D01*
X48150Y71278D01*
X47854Y70172D01*
Y69028D01*
X48150Y67922D01*
X48722Y66931D01*
X49531Y66122D01*
X50522Y65550D01*
X51628Y65254D01*
X52772D01*
X53878Y65550D01*
X54869Y66122D01*
X55678Y66931D01*
X56250Y67922D01*
X56546Y69028D01*
Y70172D01*
X56250Y71278D01*
X55678Y72269D01*
X54869Y73078D01*
X53878Y73650D01*
X52772Y73946D01*
D02*
G37*
G36*
X52790Y63925D02*
Y60190D01*
X56525D01*
X56236Y61272D01*
X55665Y62259D01*
X54859Y63065D01*
X53872Y63636D01*
X52790Y63925D01*
D02*
G37*
G36*
X51609D02*
X50528Y63636D01*
X49541Y63065D01*
X48735Y62259D01*
X48164Y61272D01*
X47875Y60190D01*
X51609D01*
Y63925D01*
D02*
G37*
G36*
X56525Y59009D02*
X52790D01*
Y55275D01*
X53872Y55564D01*
X54859Y56135D01*
X55665Y56941D01*
X56236Y57928D01*
X56525Y59009D01*
D02*
G37*
G36*
X51609D02*
X47875D01*
X48164Y57928D01*
X48735Y56941D01*
X49541Y56135D01*
X50528Y55564D01*
X51609Y55275D01*
Y59009D01*
D02*
G37*
G36*
X157091Y56556D02*
Y51366D01*
X158752D01*
Y54421D01*
X158581Y55283D01*
X158093Y56014D01*
X157362Y56502D01*
X157091Y56556D01*
D02*
G37*
G36*
X52772Y53947D02*
X51628D01*
X50522Y53650D01*
X49531Y53078D01*
X48722Y52269D01*
X48150Y51278D01*
X47854Y50172D01*
Y49028D01*
X48150Y47922D01*
X48722Y46931D01*
X49531Y46122D01*
X50522Y45550D01*
X51628Y45254D01*
X52772D01*
X53878Y45550D01*
X54869Y46122D01*
X55678Y46931D01*
X56250Y47922D01*
X56546Y49028D01*
Y50172D01*
X56250Y51278D01*
X55678Y52269D01*
X54869Y53078D01*
X53878Y53650D01*
X52772Y53947D01*
D02*
G37*
G36*
X62772Y43946D02*
X61628D01*
X60522Y43650D01*
X59531Y43078D01*
X58722Y42269D01*
X58150Y41278D01*
X57854Y40172D01*
Y39028D01*
X58150Y37922D01*
X58722Y36931D01*
X59531Y36122D01*
X60522Y35550D01*
X61628Y35254D01*
X62772D01*
X63878Y35550D01*
X64869Y36122D01*
X65678Y36931D01*
X66250Y37922D01*
X66546Y39028D01*
Y40172D01*
X66250Y41278D01*
X65678Y42269D01*
X64869Y43078D01*
X63878Y43650D01*
X62772Y43946D01*
D02*
G37*
G36*
X52772D02*
X51628D01*
X50522Y43650D01*
X49531Y43078D01*
X48722Y42269D01*
X48150Y41278D01*
X47854Y40172D01*
Y39028D01*
X48150Y37922D01*
X48722Y36931D01*
X49531Y36122D01*
X50522Y35550D01*
X51628Y35254D01*
X52772D01*
X53878Y35550D01*
X54869Y36122D01*
X55678Y36931D01*
X56250Y37922D01*
X56546Y39028D01*
Y40172D01*
X56250Y41278D01*
X55678Y42269D01*
X54869Y43078D01*
X53878Y43650D01*
X52772Y43946D01*
D02*
G37*
G36*
X292772Y33946D02*
X291628D01*
X290522Y33650D01*
X289531Y33078D01*
X288722Y32269D01*
X288150Y31278D01*
X287854Y30172D01*
Y29028D01*
X288150Y27922D01*
X288722Y26931D01*
X289531Y26122D01*
X290522Y25550D01*
X291628Y25254D01*
X292772D01*
X293878Y25550D01*
X294869Y26122D01*
X295678Y26931D01*
X296250Y27922D01*
X296547Y29028D01*
Y30172D01*
X296250Y31278D01*
X295678Y32269D01*
X294869Y33078D01*
X293878Y33650D01*
X292772Y33946D01*
D02*
G37*
G36*
X62772D02*
X61628D01*
X60522Y33650D01*
X59531Y33078D01*
X58722Y32269D01*
X58150Y31278D01*
X57854Y30172D01*
Y29028D01*
X58150Y27922D01*
X58722Y26931D01*
X59531Y26122D01*
X60522Y25550D01*
X61628Y25254D01*
X62772D01*
X63878Y25550D01*
X64869Y26122D01*
X65678Y26931D01*
X66250Y27922D01*
X66546Y29028D01*
Y30172D01*
X66250Y31278D01*
X65678Y32269D01*
X64869Y33078D01*
X63878Y33650D01*
X62772Y33946D01*
D02*
G37*
G36*
X52772D02*
X51628D01*
X50522Y33650D01*
X49531Y33078D01*
X48722Y32269D01*
X48150Y31278D01*
X47854Y30172D01*
Y29028D01*
X48150Y27922D01*
X48722Y26931D01*
X49531Y26122D01*
X50522Y25550D01*
X51628Y25254D01*
X52772D01*
X53878Y25550D01*
X54869Y26122D01*
X55678Y26931D01*
X56250Y27922D01*
X56546Y29028D01*
Y30172D01*
X56250Y31278D01*
X55678Y32269D01*
X54869Y33078D01*
X53878Y33650D01*
X52772Y33946D01*
D02*
G37*
G36*
X302772Y23946D02*
X301628D01*
X300522Y23650D01*
X299531Y23078D01*
X298722Y22269D01*
X298150Y21278D01*
X297853Y20172D01*
Y19028D01*
X298150Y17922D01*
X298722Y16931D01*
X299531Y16122D01*
X300522Y15550D01*
X301628Y15254D01*
X302772D01*
X303878Y15550D01*
X304869Y16122D01*
X305678Y16931D01*
X306250Y17922D01*
X306546Y19028D01*
Y20172D01*
X306250Y21278D01*
X305678Y22269D01*
X304869Y23078D01*
X303878Y23650D01*
X302772Y23946D01*
D02*
G37*
G36*
X292772D02*
X291628D01*
X290522Y23650D01*
X289531Y23078D01*
X288722Y22269D01*
X288150Y21278D01*
X287854Y20172D01*
Y19028D01*
X288150Y17922D01*
X288722Y16931D01*
X289531Y16122D01*
X290522Y15550D01*
X291628Y15254D01*
X292772D01*
X293878Y15550D01*
X294869Y16122D01*
X295678Y16931D01*
X296250Y17922D01*
X296547Y19028D01*
Y20172D01*
X296250Y21278D01*
X295678Y22269D01*
X294869Y23078D01*
X293878Y23650D01*
X292772Y23946D01*
D02*
G37*
G36*
X62772D02*
X61628D01*
X60522Y23650D01*
X59531Y23078D01*
X58722Y22269D01*
X58150Y21278D01*
X57854Y20172D01*
Y19028D01*
X58150Y17922D01*
X58722Y16931D01*
X59531Y16122D01*
X60522Y15550D01*
X61628Y15254D01*
X62772D01*
X63878Y15550D01*
X64869Y16122D01*
X65678Y16931D01*
X66250Y17922D01*
X66546Y19028D01*
Y20172D01*
X66250Y21278D01*
X65678Y22269D01*
X64869Y23078D01*
X63878Y23650D01*
X62772Y23946D01*
D02*
G37*
G36*
X52772D02*
X51628D01*
X50522Y23650D01*
X49531Y23078D01*
X48722Y22269D01*
X48150Y21278D01*
X47854Y20172D01*
Y19028D01*
X48150Y17922D01*
X48722Y16931D01*
X49531Y16122D01*
X50522Y15550D01*
X51628Y15254D01*
X52772D01*
X53878Y15550D01*
X54869Y16122D01*
X55678Y16931D01*
X56250Y17922D01*
X56546Y19028D01*
Y20172D01*
X56250Y21278D01*
X55678Y22269D01*
X54869Y23078D01*
X53878Y23650D01*
X52772Y23946D01*
D02*
G37*
%LPD*%
G36*
X72766Y236036D02*
X72801Y235906D01*
X73140Y235319D01*
X73619Y234840D01*
X74206Y234501D01*
X74861Y234325D01*
X75539D01*
X76194Y234501D01*
X76781Y234840D01*
X77220Y235278D01*
X110189D01*
X113884Y231584D01*
X113693Y231122D01*
X79620D01*
X79181Y231560D01*
X78594Y231899D01*
X77939Y232075D01*
X77261D01*
X76606Y231899D01*
X76019Y231560D01*
X75540Y231081D01*
X75201Y230494D01*
X75025Y229839D01*
Y229161D01*
X75201Y228506D01*
X75540Y227919D01*
X76019Y227440D01*
X76606Y227101D01*
X77261Y226925D01*
X77939D01*
X78594Y227101D01*
X79181Y227440D01*
X79620Y227878D01*
X114505D01*
X117148Y225235D01*
X116998Y224678D01*
X116706Y224599D01*
X116119Y224260D01*
X115640Y223781D01*
X115301Y223194D01*
X115125Y222539D01*
Y221919D01*
X94703Y201497D01*
X94242Y201743D01*
X94286Y201963D01*
X94132Y202737D01*
X93694Y203394D01*
X93037Y203832D01*
X92263Y203986D01*
X78243D01*
Y204916D01*
X75291D01*
Y201963D01*
Y199010D01*
X78243D01*
Y199940D01*
X92263D01*
X92483Y199984D01*
X92729Y199523D01*
X89491Y196285D01*
X65685D01*
X65494Y196747D01*
X65678Y196931D01*
X66250Y197922D01*
X66546Y199028D01*
Y200172D01*
X66250Y201278D01*
X65678Y202269D01*
X64869Y203078D01*
X63878Y203650D01*
X62772Y203946D01*
X61628D01*
X60522Y203650D01*
X59531Y203078D01*
X58722Y202269D01*
X58150Y201278D01*
X57854Y200172D01*
Y199028D01*
X58150Y197922D01*
X58722Y196931D01*
X58907Y196747D01*
X58715Y196285D01*
X57263D01*
X56642Y196161D01*
X56116Y195810D01*
X53928Y193621D01*
X53878Y193650D01*
X52772Y193947D01*
X51628D01*
X50522Y193650D01*
X49531Y193078D01*
X49347Y192894D01*
X48885Y193085D01*
Y196115D01*
X49347Y196307D01*
X49531Y196122D01*
X50522Y195550D01*
X51628Y195254D01*
X52772D01*
X53878Y195550D01*
X54869Y196122D01*
X55678Y196931D01*
X56250Y197922D01*
X56546Y199028D01*
Y200172D01*
X56250Y201278D01*
X55678Y202269D01*
X54869Y203078D01*
X53878Y203650D01*
X52772Y203946D01*
X51628D01*
X50522Y203650D01*
X49531Y203078D01*
X49347Y202893D01*
X48885Y203085D01*
Y206115D01*
X49347Y206307D01*
X49531Y206122D01*
X50522Y205550D01*
X51628Y205254D01*
X52772D01*
X53878Y205550D01*
X54869Y206122D01*
X55678Y206931D01*
X56250Y207922D01*
X56546Y209028D01*
Y210172D01*
X56250Y211278D01*
X55678Y212269D01*
X54869Y213078D01*
X53878Y213650D01*
X52772Y213947D01*
X51628D01*
X50522Y213650D01*
X50409Y213585D01*
X50102Y213985D01*
X72283Y236166D01*
X72766Y236036D01*
D02*
G37*
%LPC*%
G36*
X100039Y224375D02*
X99361D01*
X98706Y224199D01*
X98119Y223860D01*
X97640Y223381D01*
X97301Y222794D01*
X97125Y222139D01*
Y221519D01*
X93028Y217422D01*
X77220D01*
X76781Y217860D01*
X76194Y218199D01*
X75539Y218375D01*
X74861D01*
X74206Y218199D01*
X73619Y217860D01*
X73140Y217381D01*
X72801Y216794D01*
X72625Y216139D01*
Y215461D01*
X72801Y214806D01*
X73140Y214219D01*
X73619Y213740D01*
X74206Y213401D01*
X74561Y213305D01*
X74496Y212806D01*
X71141D01*
Y206869D01*
X78259D01*
Y207312D01*
X83354D01*
X84320Y207504D01*
X85139Y208052D01*
X85788Y208700D01*
X86081Y208869D01*
X86560Y209349D01*
X86899Y209936D01*
X87075Y210591D01*
Y211269D01*
X86899Y211924D01*
X86560Y212511D01*
X86081Y212990D01*
X85494Y213329D01*
X84839Y213505D01*
X84161D01*
X83506Y213329D01*
X82919Y212990D01*
X82440Y212511D01*
X82416Y212470D01*
X82308Y212362D01*
X78259D01*
Y212806D01*
X75905D01*
X75839Y213305D01*
X76194Y213401D01*
X76781Y213740D01*
X77220Y214178D01*
X93700D01*
X94321Y214302D01*
X94847Y214653D01*
X99419Y219225D01*
X100039D01*
X100694Y219401D01*
X101281Y219740D01*
X101760Y220219D01*
X102099Y220806D01*
X102275Y221461D01*
Y222139D01*
X102099Y222794D01*
X101760Y223381D01*
X101281Y223860D01*
X100694Y224199D01*
X100039Y224375D01*
D02*
G37*
G36*
X66546Y213947D02*
X57854D01*
Y205254D01*
X66546D01*
Y213947D01*
D02*
G37*
G36*
X74110Y204916D02*
X71157D01*
Y202554D01*
X74110D01*
Y204916D01*
D02*
G37*
G36*
Y201373D02*
X71157D01*
Y199010D01*
X74110D01*
Y201373D01*
D02*
G37*
%LPD*%
D13*
X17500Y90000D02*
X23498D01*
X17500Y93999D01*
X23498D01*
X21499Y95998D02*
X18500D01*
X17500Y96998D01*
Y99997D01*
X16500D01*
X15501Y98997D01*
Y97997D01*
X17500Y99997D02*
X21499D01*
X17500Y101996D02*
Y103996D01*
Y102996D01*
X21499D01*
Y101996D01*
X22498Y107994D02*
X21499D01*
Y106994D01*
Y108994D01*
Y107994D01*
X18500D01*
X17500Y108994D01*
X21499Y111993D02*
X17500D01*
X19499D01*
X20499Y112993D01*
X21499Y113992D01*
Y114992D01*
Y118991D02*
Y120990D01*
X20499Y121990D01*
X17500D01*
Y118991D01*
X18500Y117991D01*
X19499Y118991D01*
Y121990D01*
X17500Y123989D02*
Y125988D01*
Y124989D01*
X21499D01*
Y123989D01*
X23498Y134985D02*
X17500D01*
Y137985D01*
X18500Y138984D01*
X19499D01*
X20499Y137985D01*
Y134985D01*
Y137985D01*
X21499Y138984D01*
X22498D01*
X23498Y137985D01*
Y134985D01*
X17500Y143983D02*
Y141983D01*
X18500Y140983D01*
X20499D01*
X21499Y141983D01*
Y143983D01*
X20499Y144982D01*
X19499D01*
Y140983D01*
X17500Y146982D02*
X21499D01*
Y149981D01*
X20499Y150980D01*
X17500D01*
X21499Y156978D02*
Y153979D01*
X20499Y152980D01*
X18500D01*
X17500Y153979D01*
Y156978D01*
Y161977D02*
Y159977D01*
X18500Y158978D01*
X20499D01*
X21499Y159977D01*
Y161977D01*
X20499Y162976D01*
X19499D01*
Y158978D01*
X17500Y170974D02*
X21499D01*
X23498Y172973D01*
X21499Y174972D01*
X17500D01*
X20499D01*
Y170974D01*
X22498Y176972D02*
X23498Y177971D01*
Y179971D01*
X22498Y180971D01*
X21499D01*
X20499Y179971D01*
Y178971D01*
Y179971D01*
X19499Y180971D01*
X18500D01*
X17500Y179971D01*
Y177971D01*
X18500Y176972D01*
D23*
X52200Y209600D02*
D03*
X62200Y199600D02*
D03*
X52200D02*
D03*
X62200Y189600D02*
D03*
X52200D02*
D03*
X62200Y179600D02*
D03*
X52200D02*
D03*
X62200Y169600D02*
D03*
X52200D02*
D03*
X62200Y159600D02*
D03*
X52200D02*
D03*
X62200Y149600D02*
D03*
X52200D02*
D03*
X62200Y139600D02*
D03*
X52200D02*
D03*
X62200Y129600D02*
D03*
X52200D02*
D03*
X62200Y119600D02*
D03*
X52200D02*
D03*
X62200Y109600D02*
D03*
X52200D02*
D03*
X62200Y99600D02*
D03*
X52200D02*
D03*
X62200Y89600D02*
D03*
X52200D02*
D03*
X62200Y79600D02*
D03*
X52200D02*
D03*
X62200Y69600D02*
D03*
X52200D02*
D03*
X62200Y59600D02*
D03*
X52200D02*
D03*
X62200Y49600D02*
D03*
X52200D02*
D03*
X62200Y39600D02*
D03*
X52200D02*
D03*
X62200Y29600D02*
D03*
X52200D02*
D03*
X292200Y209600D02*
D03*
X302200Y199600D02*
D03*
X292200D02*
D03*
X302200Y189600D02*
D03*
X292200D02*
D03*
X302200Y179600D02*
D03*
X292200D02*
D03*
X302200Y169600D02*
D03*
X292200D02*
D03*
X302200Y159600D02*
D03*
X292200D02*
D03*
X302200Y149600D02*
D03*
X292200D02*
D03*
X302200Y139600D02*
D03*
X292200D02*
D03*
X302200Y129600D02*
D03*
X292200D02*
D03*
X302200Y119600D02*
D03*
X292200D02*
D03*
X302200Y109600D02*
D03*
X292200D02*
D03*
X302200Y99600D02*
D03*
X292200D02*
D03*
X302200Y89600D02*
D03*
X292200D02*
D03*
X302200Y79600D02*
D03*
X292200D02*
D03*
X302200Y69600D02*
D03*
X292200D02*
D03*
X302200Y59600D02*
D03*
X292200D02*
D03*
X302200Y49600D02*
D03*
X292200D02*
D03*
X302200Y39600D02*
D03*
X292200D02*
D03*
X302200Y29600D02*
D03*
X292200D02*
D03*
Y19600D02*
D03*
X302200D02*
D03*
X52200D02*
D03*
X62200D02*
D03*
X208900Y200900D02*
D03*
Y210900D02*
D03*
Y220900D02*
D03*
Y190900D02*
D03*
Y180900D02*
D03*
Y170900D02*
D03*
Y160900D02*
D03*
Y150900D02*
D03*
Y140900D02*
D03*
Y130900D02*
D03*
Y120900D02*
D03*
X268900Y120900D02*
D03*
Y130900D02*
D03*
Y140900D02*
D03*
Y150900D02*
D03*
Y160900D02*
D03*
Y170900D02*
D03*
Y180900D02*
D03*
Y190900D02*
D03*
Y230900D02*
D03*
Y220900D02*
D03*
Y210900D02*
D03*
Y200900D02*
D03*
D24*
X62200Y209600D02*
D03*
X302200D02*
D03*
D32*
X118063Y103400D02*
D03*
X125937D02*
D03*
X99663Y103600D02*
D03*
X107537D02*
D03*
X81663Y103100D02*
D03*
X89537D02*
D03*
X128374Y157000D02*
D03*
X120500D02*
D03*
X101663Y157200D02*
D03*
X109537D02*
D03*
X82137Y157400D02*
D03*
X90011D02*
D03*
D33*
X74700Y209837D02*
D03*
Y201963D02*
D03*
X175500Y137326D02*
D03*
Y145200D02*
D03*
D36*
X292249Y194537D02*
G03*
X291597Y194500I-49J-4937D01*
G01*
X192400Y141962D02*
X193300Y142862D01*
X192400Y132400D02*
Y141962D01*
X193300Y142862D02*
Y152800D01*
X156900Y153500D02*
X165200Y145200D01*
X201999Y112799D02*
X258901D01*
X185700Y145200D02*
X193300Y152800D01*
X281435Y243765D02*
X297300Y227900D01*
X275123Y204677D02*
X278666D01*
X278889Y204663D01*
X306445D01*
X268900Y210900D02*
X275123Y204677D01*
X307137Y203482D02*
X307137Y44537D01*
X307137Y203482D02*
Y203971D01*
X306445Y204663D02*
X307137Y203971D01*
X163777Y209423D02*
X163900Y209300D01*
X190437Y235837D02*
X281081D01*
X302200Y214718D01*
X163900Y209300D02*
X190437Y235837D01*
X275300Y194500D02*
X291597D01*
X268900Y200900D02*
X275300Y194500D01*
X302200Y209600D02*
Y214718D01*
X90163Y194663D02*
X117700Y222200D01*
X57263Y194663D02*
X90163D01*
X116876Y32500D02*
X285100D01*
X292200Y39600D01*
X131500Y69800D02*
Y88139D01*
X125937Y93702D02*
X131500Y88139D01*
X125937Y93702D02*
Y103400D01*
X118063D02*
Y114737D01*
X111700Y121100D02*
X118063Y114737D01*
X116243Y90545D02*
Y94303D01*
X107537Y103009D02*
X116243Y94303D01*
X107537Y103009D02*
Y103600D01*
X100063D02*
Y112737D01*
X81700Y103137D02*
Y121100D01*
X81663Y103100D02*
X81700Y103137D01*
X141050Y237150D02*
X141100Y237200D01*
X77589Y243765D02*
X281435D01*
X47263Y213439D02*
X77589Y243765D01*
X84200Y240600D02*
X111800D01*
X136000Y216400D01*
X110861Y236900D02*
X131000Y216761D01*
X75200Y236900D02*
X110861D01*
X141050Y209850D02*
Y237150D01*
X292249Y194537D02*
X296571Y194500D01*
X297263Y34537D02*
Y193808D01*
X296571Y194500D02*
X296917Y194154D01*
X296917Y194154D02*
X297263Y193808D01*
Y34537D02*
X302200Y29600D01*
X235700Y88700D02*
X252800D01*
X302200Y39600D02*
X307137Y44537D01*
X50234Y184584D02*
X54198D01*
X57169Y181614D01*
Y177649D02*
Y181614D01*
Y177649D02*
X60218Y174600D01*
X64182D01*
X67137Y171645D01*
Y94537D02*
Y171645D01*
X62200Y89600D02*
X67137Y94537D01*
X47263Y187555D02*
Y213439D01*
Y187555D02*
X50234Y184584D01*
X67137Y57555D02*
Y64663D01*
X62200Y69600D02*
X67137Y64663D01*
X52200Y189600D02*
X57263Y194663D01*
X169700Y113700D02*
X178200Y105200D01*
X175500Y145200D02*
X185700D01*
X165200D02*
X175500D01*
X224300Y100100D02*
X235700Y88700D01*
X234800Y57184D02*
Y79900D01*
Y57184D02*
X241800Y50185D01*
Y38458D02*
Y50185D01*
X157700Y113700D02*
X169700D01*
X83789Y13935D02*
X186635D01*
X75312Y22412D02*
X83789Y13935D01*
X66835Y51947D02*
Y57253D01*
Y51947D02*
X75312Y43470D01*
X186635Y13935D02*
X193500Y20800D01*
X66835Y57253D02*
X67137Y57555D01*
X75312Y22412D02*
Y43470D01*
X70000Y55100D02*
X70250Y54850D01*
X85100Y17100D02*
X136600D01*
X94035Y30989D02*
Y33811D01*
X100562Y40339D01*
X119709D01*
X126500Y47130D01*
Y50776D01*
X90747Y27701D02*
X94035Y30989D01*
X131550Y40050D02*
X131600Y40000D01*
X131550Y40050D02*
Y50726D01*
X115600Y36700D02*
X165000D01*
X116711Y32335D02*
X116876Y32500D01*
X165000Y36700D02*
X165100Y36600D01*
X113924Y32500D02*
X114089Y32335D01*
X116711D01*
X97200Y32500D02*
X113924D01*
X90239Y33100D02*
X107839Y50700D01*
X90200Y33100D02*
X90239D01*
X121424Y50700D02*
X121500Y50776D01*
X107839Y50700D02*
X121424D01*
X131500Y50776D02*
X131550Y50726D01*
X136550Y40550D02*
Y50726D01*
X136500Y50776D02*
X136550Y50726D01*
Y40550D02*
X136600Y40500D01*
X120119Y28619D02*
X120250Y28750D01*
X151650D01*
X117500Y25400D02*
X117535Y25435D01*
X146365D01*
X140232Y21100D02*
X141067Y21935D01*
X141600D01*
X117200Y21100D02*
X140232D01*
X151600Y40100D02*
Y50676D01*
X151500Y50776D02*
X151600Y50676D01*
Y40100D02*
X151700Y40000D01*
X151650Y28750D02*
X151800Y28900D01*
X146550Y40450D02*
Y50726D01*
Y40450D02*
X146600Y40400D01*
X146500Y50776D02*
X146550Y50726D01*
X141500Y40400D02*
Y50776D01*
X115500Y36800D02*
X115600Y36700D01*
X156000Y178200D02*
Y190776D01*
Y178200D02*
X156100Y178100D01*
X70250Y54850D02*
X80050D01*
X80300Y54600D01*
X115000Y67000D02*
X118661Y63339D01*
X136500Y80900D02*
X139100Y83500D01*
X151000Y190776D02*
X151100Y190676D01*
X151000Y179500D02*
Y190776D01*
X93700Y215800D02*
X99700Y221800D01*
X75200Y215800D02*
X93700D01*
X115176Y229500D02*
X126000Y218676D01*
X136000Y209800D02*
Y216400D01*
X131000Y209800D02*
Y216761D01*
X126000Y209800D02*
Y218676D01*
X77600Y229500D02*
X115176D01*
X136500Y69800D02*
Y80900D01*
X90000Y60200D02*
X148542D01*
X151500Y63158D01*
Y69800D01*
X118661Y63339D02*
X143685D01*
X146500Y66154D01*
Y69800D01*
X144600Y83024D02*
Y102000D01*
X141500Y69800D02*
Y79923D01*
X144600Y83024D01*
X89437Y101091D02*
X96243Y94285D01*
Y90545D02*
Y94285D01*
Y90545D02*
X113933Y72855D01*
X120914D01*
X121500Y72269D01*
Y69800D02*
Y72269D01*
X116243Y90545D02*
X126500Y80288D01*
Y69800D02*
Y80288D01*
X95086Y157400D02*
X103345Y165659D01*
X90011Y157400D02*
X95086D01*
X91700Y121100D02*
X100063Y112737D01*
X119122Y155622D02*
X120500Y157000D01*
X119122Y153235D02*
Y155622D01*
X112100Y146213D02*
X119122Y153235D01*
X141000Y209800D02*
X141050Y209850D01*
X146050Y234650D02*
X146100Y234700D01*
X146050Y209850D02*
Y234650D01*
X146000Y209800D02*
X146050Y209850D01*
X151000Y209800D02*
X151050Y209850D01*
Y229450D01*
X151100Y229500D01*
X155850Y209950D02*
Y219950D01*
Y209950D02*
X156000Y209800D01*
X155700Y220100D02*
X155850Y219950D01*
X146150Y176450D02*
Y190626D01*
Y176450D02*
X146300Y176300D01*
X146000Y190776D02*
X146150Y190626D01*
X141243Y156957D02*
Y190533D01*
X141000Y190776D02*
X141243Y190533D01*
Y156957D02*
X141600Y156600D01*
X136000Y176691D02*
Y190776D01*
X128374Y157000D02*
X128974Y156400D01*
X128374Y157000D02*
Y169065D01*
X136000Y176691D01*
X131000Y174923D02*
Y190776D01*
X113277Y157200D02*
X131000Y174923D01*
X109537Y157200D02*
X113277D01*
X126000Y182700D02*
Y190776D01*
Y182700D02*
X126643Y182057D01*
Y173918D02*
Y182057D01*
X118384Y165659D02*
X126643Y173918D01*
X103345Y165659D02*
X118384D01*
X101863Y151592D02*
Y157200D01*
X92100Y146213D02*
X92417Y146530D01*
X96787Y150900D01*
X101171D01*
X101863Y151592D01*
X92100Y146213D02*
Y146846D01*
X82100Y146213D02*
Y157363D01*
X82137Y157400D01*
D37*
X74700Y209837D02*
X83354D01*
X84447Y210930D01*
X84500D01*
X199100Y106800D02*
X269400D01*
X121700Y129600D02*
X175500D01*
Y130400D02*
X199100Y106800D01*
X269400D02*
X292200Y129600D01*
X102100Y175800D02*
Y202123D01*
X110200Y129600D02*
X121700D01*
Y121100D02*
Y129600D01*
X110200D02*
Y138113D01*
X102100Y146213D02*
X110200Y138113D01*
X101700Y121100D02*
X110200Y129600D01*
D38*
X74700Y201963D02*
X92263D01*
X156500Y47000D02*
X159374Y44126D01*
Y41326D02*
Y44126D01*
X156500Y47000D02*
Y50776D01*
X159374Y41326D02*
X159600Y41100D01*
X175500Y130400D02*
Y137326D01*
X156500Y69722D02*
X156722Y69500D01*
X156500Y69722D02*
Y69800D01*
X156722Y69500D02*
X185300D01*
X156550Y78950D02*
X156600Y79000D01*
X156500Y69800D02*
X156550Y69850D01*
Y78950D01*
X121000Y177965D02*
X122100Y176865D01*
X121000Y177965D02*
Y190776D01*
X122100Y175800D02*
Y176865D01*
D39*
X241800Y38458D02*
D03*
D40*
Y58143D02*
D03*
D41*
X121700Y121100D02*
D03*
X91700D02*
D03*
X81700D02*
D03*
X111700D02*
D03*
X121700Y91513D02*
D03*
X111700D02*
D03*
X101700D02*
D03*
X91700D02*
D03*
X101700Y121100D02*
D03*
X102100Y175800D02*
D03*
X92100Y146213D02*
D03*
X102100D02*
D03*
X112100D02*
D03*
X122100D02*
D03*
X112100Y175800D02*
D03*
X82100D02*
D03*
X92100D02*
D03*
X122100D02*
D03*
D42*
X81700Y91513D02*
D03*
X82100Y146213D02*
D03*
D43*
X208900Y230900D02*
D03*
D44*
X20000Y210000D02*
D03*
X335000D02*
D03*
Y20000D02*
D03*
X20000D02*
D03*
D45*
X192400Y132400D02*
D03*
X156900Y153500D02*
D03*
X258901Y112799D02*
D03*
X201999D02*
D03*
X193300Y152800D02*
D03*
X297300Y227900D02*
D03*
X92263Y201963D02*
D03*
X159600Y41100D02*
D03*
X141100Y237200D02*
D03*
X84200Y240600D02*
D03*
X252800Y88700D02*
D03*
X163900Y209300D02*
D03*
X102100Y202123D02*
D03*
X117700Y222200D02*
D03*
X178200Y105200D02*
D03*
X224300Y100100D02*
D03*
X234800Y79900D02*
D03*
X157700Y113700D02*
D03*
X185300Y69500D02*
D03*
X70000Y55100D02*
D03*
X85100Y17100D02*
D03*
X193500Y20800D02*
D03*
X131600Y40000D02*
D03*
X90200Y33100D02*
D03*
X97200Y32500D02*
D03*
X90747Y27701D02*
D03*
X136600Y40500D02*
D03*
Y17100D02*
D03*
X117500Y25400D02*
D03*
X120119Y28619D02*
D03*
X141600Y21935D02*
D03*
X117200Y21100D02*
D03*
X151700Y40000D02*
D03*
X151800Y28900D02*
D03*
X146400Y25400D02*
D03*
X146600Y40400D02*
D03*
X141500D02*
D03*
X165100Y36600D02*
D03*
X115500Y36800D02*
D03*
X156100Y178100D02*
D03*
X80300Y54600D02*
D03*
X115000Y67000D02*
D03*
X156600Y79000D02*
D03*
X139100Y83500D02*
D03*
X151000Y179500D02*
D03*
X99700Y221800D02*
D03*
X75200Y215800D02*
D03*
X90000Y60200D02*
D03*
X144600Y102000D02*
D03*
X146100Y234700D02*
D03*
X151100Y229500D02*
D03*
X84500Y210930D02*
D03*
X155700Y220100D02*
D03*
X75200Y236900D02*
D03*
X77600Y229500D02*
D03*
X146300Y176300D02*
D03*
X141600Y156600D02*
D03*
D46*
X121500Y69800D02*
D03*
X126500D02*
D03*
X131500D02*
D03*
X136500D02*
D03*
X141500D02*
D03*
X146500D02*
D03*
X151500D02*
D03*
X156500D02*
D03*
Y50776D02*
D03*
X151500D02*
D03*
X146500D02*
D03*
X141500D02*
D03*
X136500D02*
D03*
X131500D02*
D03*
X126500D02*
D03*
X151000Y209800D02*
D03*
X146000D02*
D03*
X141000D02*
D03*
X136000D02*
D03*
X131000D02*
D03*
X126000D02*
D03*
X121000D02*
D03*
Y190776D02*
D03*
X126000D02*
D03*
X131000D02*
D03*
X136000D02*
D03*
X141000D02*
D03*
X146000D02*
D03*
X151000D02*
D03*
X156000D02*
D03*
D47*
X121500Y50776D02*
D03*
X156000Y209800D02*
D03*
M02*
