G04*
G04 #@! TF.GenerationSoftware,Altium Limited,Altium Designer,24.2.2 (26)*
G04*
G04 Layer_Color=65535*
%FSLAX25Y25*%
%MOIN*%
G70*
G04*
G04 #@! TF.SameCoordinates,C094F21F-3D64-4DBD-B291-BB1914DD33BA*
G04*
G04*
G04 #@! TF.FilePolarity,Positive*
G04*
G01*
G75*
%ADD10C,0.00591*%
%ADD11C,0.00984*%
%ADD12C,0.02362*%
%ADD13C,0.01000*%
%ADD14C,0.00787*%
D10*
X270343Y48300D02*
G03*
X270343Y48300I-28543J0D01*
G01*
D11*
X82192Y83403D02*
G03*
X82192Y83403I-492J0D01*
G01*
X82592Y138103D02*
G03*
X82592Y138103I-492J0D01*
G01*
X108700Y213592D02*
G03*
X108700Y213592I-492J0D01*
G01*
X83884Y42208D02*
G03*
X83884Y42208I-492J0D01*
G01*
D12*
X100727Y219498D02*
G03*
X100727Y219498I-1181J0D01*
G01*
X93235Y36302D02*
G03*
X93235Y36302I-1181J0D01*
G01*
D13*
X180929Y115142D02*
G03*
X180929Y115142I-5315J0D01*
G01*
X180515Y152800D02*
G03*
X180515Y152800I-5315J0D01*
G01*
X203191Y115250D02*
Y236609D01*
Y115250D02*
X274648D01*
Y236609D01*
X203191D02*
X274648D01*
X165613Y104642D02*
X185613D01*
Y125642D01*
X165613D02*
X185613D01*
X165613Y104642D02*
Y125642D01*
X165200Y163300D02*
X185200D01*
X165200Y142300D02*
Y163300D01*
Y142300D02*
X185200D01*
Y163300D01*
X267700Y23999D02*
X266700Y24999D01*
X264701D01*
X263701Y23999D01*
Y23000D01*
X264701Y22000D01*
X266700D01*
X267700Y21000D01*
Y20001D01*
X266700Y19001D01*
X264701D01*
X263701Y20001D01*
X269699Y19001D02*
X271699D01*
X270699D01*
Y24999D01*
X269699Y23999D01*
X92303Y135199D02*
Y129201D01*
X95302D01*
X96301Y130201D01*
Y134199D01*
X95302Y135199D01*
X92303D01*
X102299Y134199D02*
X101300Y135199D01*
X99300D01*
X98301Y134199D01*
Y133200D01*
X99300Y132200D01*
X101300D01*
X102299Y131200D01*
Y130201D01*
X101300Y129201D01*
X99300D01*
X98301Y130201D01*
X108297Y129201D02*
X104299D01*
X108297Y133200D01*
Y134199D01*
X107298Y135199D01*
X105298D01*
X104299Y134199D01*
X76900Y191198D02*
Y185200D01*
X79899D01*
X80899Y186200D01*
Y190198D01*
X79899Y191198D01*
X76900D01*
X86897Y190198D02*
X85897Y191198D01*
X83898D01*
X82898Y190198D01*
Y189199D01*
X83898Y188199D01*
X85897D01*
X86897Y187199D01*
Y186200D01*
X85897Y185200D01*
X83898D01*
X82898Y186200D01*
X88896Y185200D02*
X90895D01*
X89896D01*
Y191198D01*
X88896Y190198D01*
X79200Y52198D02*
Y47200D01*
X80200Y46200D01*
X82199D01*
X83199Y47200D01*
Y52198D01*
X89197D02*
X85198D01*
Y49199D01*
X87197Y50199D01*
X88197D01*
X89197Y49199D01*
Y47200D01*
X88197Y46200D01*
X86198D01*
X85198Y47200D01*
X203700Y246098D02*
Y241100D01*
X204700Y240100D01*
X206699D01*
X207699Y241100D01*
Y246098D01*
X212697Y240100D02*
Y246098D01*
X209698Y243099D01*
X213697D01*
X102400Y246698D02*
Y241700D01*
X103400Y240700D01*
X105399D01*
X106399Y241700D01*
Y246698D01*
X112397Y240700D02*
X108398D01*
X112397Y244699D01*
Y245698D01*
X111397Y246698D01*
X109398D01*
X108398Y245698D01*
X199200Y64400D02*
Y70398D01*
X202199D01*
X203199Y69398D01*
Y67399D01*
X202199Y66399D01*
X199200D01*
X201199D02*
X203199Y64400D01*
X209197D02*
X205198D01*
X209197Y68399D01*
Y69398D01*
X208197Y70398D01*
X206198D01*
X205198Y69398D01*
X211196D02*
X212196Y70398D01*
X214195D01*
X215195Y69398D01*
Y65400D01*
X214195Y64400D01*
X212196D01*
X211196Y65400D01*
Y69398D01*
X259000Y95400D02*
Y101398D01*
X261999D01*
X262999Y100398D01*
Y98399D01*
X261999Y97399D01*
X259000D01*
X260999D02*
X262999Y95400D01*
X264998D02*
X266997D01*
X265998D01*
Y101398D01*
X264998Y100398D01*
X269996Y96400D02*
X270996Y95400D01*
X272995D01*
X273995Y96400D01*
Y100398D01*
X272995Y101398D01*
X270996D01*
X269996Y100398D01*
Y99399D01*
X270996Y98399D01*
X273995D01*
X169600Y65000D02*
Y70998D01*
X172599D01*
X173599Y69998D01*
Y67999D01*
X172599Y66999D01*
X169600D01*
X171599D02*
X173599Y65000D01*
X175598D02*
X177597D01*
X176598D01*
Y70998D01*
X175598Y69998D01*
X180596D02*
X181596Y70998D01*
X183596D01*
X184595Y69998D01*
Y68999D01*
X183596Y67999D01*
X184595Y66999D01*
Y66000D01*
X183596Y65000D01*
X181596D01*
X180596Y66000D01*
Y66999D01*
X181596Y67999D01*
X180596Y68999D01*
Y69998D01*
X181596Y67999D02*
X183596D01*
X184700Y189500D02*
Y195498D01*
X187699D01*
X188699Y194498D01*
Y192499D01*
X187699Y191499D01*
X184700D01*
X186699D02*
X188699Y189500D01*
X190698D02*
X192697D01*
X191698D01*
Y195498D01*
X190698Y194498D01*
X195696Y195498D02*
X199695D01*
Y194498D01*
X195696Y190500D01*
Y189500D01*
X182900Y95700D02*
Y101698D01*
X185899D01*
X186899Y100698D01*
Y98699D01*
X185899Y97699D01*
X182900D01*
X184899D02*
X186899Y95700D01*
X188898D02*
X190897D01*
X189898D01*
Y101698D01*
X188898Y100698D01*
X197895Y101698D02*
X195896Y100698D01*
X193896Y98699D01*
Y96700D01*
X194896Y95700D01*
X196896D01*
X197895Y96700D01*
Y97699D01*
X196896Y98699D01*
X193896D01*
X79400Y74600D02*
Y80598D01*
X82399D01*
X83399Y79598D01*
Y77599D01*
X82399Y76599D01*
X79400D01*
X81399D02*
X83399Y74600D01*
X85398D02*
X87397D01*
X86398D01*
Y80598D01*
X85398Y79598D01*
X93396Y74600D02*
Y80598D01*
X90396Y77599D01*
X94395D01*
X98700Y74700D02*
Y80698D01*
X101699D01*
X102699Y79698D01*
Y77699D01*
X101699Y76699D01*
X98700D01*
X100699D02*
X102699Y74700D01*
X104698D02*
X106697D01*
X105698D01*
Y80698D01*
X104698Y79698D01*
X109696D02*
X110696Y80698D01*
X112696D01*
X113695Y79698D01*
Y78699D01*
X112696Y77699D01*
X111696D01*
X112696D01*
X113695Y76699D01*
Y75700D01*
X112696Y74700D01*
X110696D01*
X109696Y75700D01*
X131300Y120100D02*
Y126098D01*
X134299D01*
X135299Y125098D01*
Y123099D01*
X134299Y122099D01*
X131300D01*
X133299D02*
X135299Y120100D01*
X137298D02*
X139297D01*
X138298D01*
Y126098D01*
X137298Y125098D01*
X146295Y120100D02*
X142296D01*
X146295Y124099D01*
Y125098D01*
X145296Y126098D01*
X143296D01*
X142296Y125098D01*
X131700Y98800D02*
Y104798D01*
X134699D01*
X135699Y103798D01*
Y101799D01*
X134699Y100799D01*
X131700D01*
X133699D02*
X135699Y98800D01*
X137698D02*
X139697D01*
X138698D01*
Y104798D01*
X137698Y103798D01*
X142696Y98800D02*
X144696D01*
X143696D01*
Y104798D01*
X142696Y103798D01*
X134500Y153400D02*
Y159398D01*
X137499D01*
X138499Y158398D01*
Y156399D01*
X137499Y155399D01*
X134500D01*
X136499D02*
X138499Y153400D01*
X143497D02*
Y159398D01*
X140498Y156399D01*
X144497D01*
X131500Y176100D02*
Y182098D01*
X134499D01*
X135499Y181098D01*
Y179099D01*
X134499Y178099D01*
X131500D01*
X133499D02*
X135499Y176100D01*
X137498Y181098D02*
X138498Y182098D01*
X140497D01*
X141497Y181098D01*
Y180099D01*
X140497Y179099D01*
X139497D01*
X140497D01*
X141497Y178099D01*
Y177100D01*
X140497Y176100D01*
X138498D01*
X137498Y177100D01*
X95000Y196400D02*
Y202398D01*
X97999D01*
X98999Y201398D01*
Y199399D01*
X97999Y198399D01*
X95000D01*
X96999D02*
X98999Y196400D01*
X104997D02*
X100998D01*
X104997Y200399D01*
Y201398D01*
X103997Y202398D01*
X101998D01*
X100998Y201398D01*
X81500Y205500D02*
Y211498D01*
X84499D01*
X85499Y210498D01*
Y208499D01*
X84499Y207499D01*
X81500D01*
X83499D02*
X85499Y205500D01*
X87498D02*
X89497D01*
X88498D01*
Y211498D01*
X87498Y210498D01*
X226499Y97500D02*
Y101498D01*
X225499Y102498D01*
X223500D01*
X222500Y101498D01*
Y97500D01*
X223500Y96500D01*
X225499D01*
X224499Y98499D02*
X226499Y96500D01*
X225499D02*
X226499Y97500D01*
X228498Y96500D02*
X230497D01*
X229498D01*
Y102498D01*
X228498Y101498D01*
X172799Y100698D02*
X171799Y101698D01*
X169800D01*
X168800Y100698D01*
Y96700D01*
X169800Y95700D01*
X171799D01*
X172799Y96700D01*
X178797Y101698D02*
X176797Y100698D01*
X174798Y98699D01*
Y96700D01*
X175798Y95700D01*
X177797D01*
X178797Y96700D01*
Y97699D01*
X177797Y98699D01*
X174798D01*
X173699Y194698D02*
X172699Y195698D01*
X170700D01*
X169700Y194698D01*
Y190700D01*
X170700Y189700D01*
X172699D01*
X173699Y190700D01*
X179697Y195698D02*
X175698D01*
Y192699D01*
X177697Y193699D01*
X178697D01*
X179697Y192699D01*
Y190700D01*
X178697Y189700D01*
X176698D01*
X175698Y190700D01*
X188499Y225598D02*
X187499Y226598D01*
X185500D01*
X184500Y225598D01*
Y221600D01*
X185500Y220600D01*
X187499D01*
X188499Y221600D01*
X193497Y220600D02*
Y226598D01*
X190498Y223599D01*
X194497D01*
X188199Y243598D02*
X187199Y244598D01*
X185200D01*
X184200Y243598D01*
Y239600D01*
X185200Y238600D01*
X187199D01*
X188199Y239600D01*
X190198Y243598D02*
X191198Y244598D01*
X193197D01*
X194197Y243598D01*
Y242599D01*
X193197Y241599D01*
X192197D01*
X193197D01*
X194197Y240599D01*
Y239600D01*
X193197Y238600D01*
X191198D01*
X190198Y239600D01*
X100599Y60298D02*
X99599Y61298D01*
X97600D01*
X96600Y60298D01*
Y56300D01*
X97600Y55300D01*
X99599D01*
X100599Y56300D01*
X106597Y55300D02*
X102598D01*
X106597Y59299D01*
Y60298D01*
X105597Y61298D01*
X103598D01*
X102598Y60298D01*
X153800Y136498D02*
Y130500D01*
X156799D01*
X157799Y131500D01*
Y132499D01*
X156799Y133499D01*
X153800D01*
X156799D01*
X157799Y134499D01*
Y135498D01*
X156799Y136498D01*
X153800D01*
X163797Y130500D02*
X159798D01*
X163797Y134499D01*
Y135498D01*
X162797Y136498D01*
X160798D01*
X159798Y135498D01*
X153400Y174198D02*
Y168200D01*
X156399D01*
X157399Y169200D01*
Y170199D01*
X156399Y171199D01*
X153400D01*
X156399D01*
X157399Y172199D01*
Y173198D01*
X156399Y174198D01*
X153400D01*
X159398Y168200D02*
X161397D01*
X160398D01*
Y174198D01*
X159398Y173198D01*
D14*
X75913Y85962D02*
Y127104D01*
X127487Y85962D02*
Y127104D01*
X75913D02*
X127487D01*
X75913Y85962D02*
X127487D01*
X76313Y140662D02*
X127887D01*
X76313Y181804D02*
X127887D01*
Y140662D02*
Y181804D01*
X76313Y140662D02*
Y181804D01*
X103483Y215561D02*
Y235639D01*
X88917Y215561D02*
Y235639D01*
Y215561D02*
X103483D01*
X88917Y235639D02*
X103483D01*
X88116Y20161D02*
Y40239D01*
X102683Y20161D02*
Y40239D01*
X88116D02*
X102683D01*
X88116Y20161D02*
X102683D01*
X131113Y87960D02*
Y95440D01*
Y87960D02*
X145287D01*
X131113Y95440D02*
X145287D01*
Y87960D02*
Y95440D01*
X130713Y109260D02*
Y116740D01*
Y109260D02*
X144887D01*
X130713Y116740D02*
X144887D01*
Y109260D02*
Y116740D01*
X98113Y63860D02*
Y71340D01*
Y63860D02*
X112287D01*
X98113Y71340D02*
X112287D01*
Y63860D02*
Y71340D01*
X78813Y63760D02*
Y71240D01*
Y63760D02*
X92987D01*
X78813Y71240D02*
X92987D01*
Y63760D02*
Y71240D01*
X183187Y54160D02*
Y61640D01*
X169013D02*
X183187D01*
X169013Y54160D02*
X183187D01*
X169013D02*
Y61640D01*
X258360Y77813D02*
X265840D01*
Y91987D01*
X258360Y77813D02*
Y91987D01*
X265840D01*
X198545Y46862D02*
X206026D01*
Y61035D01*
X198545Y46862D02*
Y61035D01*
X206026D01*
X182260Y92350D02*
X189740D01*
X182260Y78176D02*
Y92350D01*
X189740Y78176D02*
Y92350D01*
X182260Y78176D02*
X189740D01*
X184060Y171913D02*
X191540D01*
Y186087D01*
X184060Y171913D02*
Y186087D01*
X191540D01*
X228325Y82088D02*
Y93112D01*
X231475Y82088D02*
Y93112D01*
X228325D02*
X231475D01*
X228325Y82088D02*
X231475D01*
X96013Y44460D02*
X110187D01*
X96013D02*
Y51940D01*
X110187Y44460D02*
Y51940D01*
X96013D02*
X110187D01*
X183576Y235240D02*
X197750D01*
Y227760D02*
Y235240D01*
X183576Y227760D02*
Y235240D01*
Y227760D02*
X197750D01*
X183913Y217240D02*
X198087D01*
Y209760D02*
Y217240D01*
X183913Y209760D02*
Y217240D01*
Y209760D02*
X198087D01*
X176540Y172113D02*
Y186287D01*
X169060Y172113D02*
X176540D01*
X169060Y186287D02*
X176540D01*
X169060Y172113D02*
Y186287D01*
X75976Y194660D02*
Y202140D01*
Y194660D02*
X90150D01*
X75976Y202140D02*
X90150D01*
Y194660D02*
Y202140D01*
X108587Y185560D02*
Y193040D01*
X94413D02*
X108587D01*
X94413Y185560D02*
X108587D01*
X94413D02*
Y193040D01*
X145087Y165260D02*
Y172740D01*
X130913D02*
X145087D01*
X130913Y165260D02*
X145087D01*
X130913D02*
Y172740D01*
X168160Y78176D02*
Y92350D01*
X175640D01*
X168160Y78176D02*
X175640D01*
Y92350D01*
X130913Y142560D02*
Y150040D01*
Y142560D02*
X145087D01*
X130913Y150040D02*
X145087D01*
Y142560D02*
Y150040D01*
M02*
