G04*
G04 #@! TF.GenerationSoftware,Altium Limited,Altium Designer,24.2.2 (26)*
G04*
G04 Layer_Color=32896*
%FSLAX25Y25*%
%MOIN*%
G70*
G04*
G04 #@! TF.SameCoordinates,C094F21F-3D64-4DBD-B291-BB1914DD33BA*
G04*
G04*
G04 #@! TF.FilePolarity,Positive*
G04*
G01*
G75*
%ADD11C,0.00984*%
%ADD13C,0.01000*%
%ADD14C,0.00787*%
D11*
X121992Y43642D02*
G03*
X121992Y43642I-492J0D01*
G01*
X156492Y216934D02*
G03*
X156492Y216934I-492J0D01*
G01*
D13*
X315192Y9895D02*
Y340506D01*
X39503Y9895D02*
X315192D01*
X39503D02*
Y340506D01*
X315192D01*
X83100Y219199D02*
X84100Y220199D01*
X86099D01*
X87099Y219199D01*
Y215201D01*
X86099Y214201D01*
X84100D01*
X83100Y215201D01*
X81101Y214201D02*
X79101D01*
X80101D01*
Y220199D01*
X81101Y219199D01*
X63201Y221598D02*
X64201Y222598D01*
X66200D01*
X67200Y221598D01*
Y217600D01*
X66200Y216600D01*
X64201D01*
X63201Y217600D01*
X61202Y216600D02*
Y222598D01*
X57203Y216600D01*
Y222598D01*
X55204Y216600D02*
X53205D01*
X54204D01*
Y222598D01*
X55204Y221598D01*
X50205D02*
X49206Y222598D01*
X47207D01*
X46207Y221598D01*
Y217600D01*
X47207Y216600D01*
X49206D01*
X50205Y217600D01*
Y221598D01*
X303201D02*
X304201Y222598D01*
X306200D01*
X307200Y221598D01*
Y217600D01*
X306200Y216600D01*
X304201D01*
X303201Y217600D01*
X301202Y216600D02*
Y222598D01*
X297203Y216600D01*
Y222598D01*
X295204D02*
X291205D01*
Y221598D01*
X295204Y217600D01*
Y216600D01*
X117050Y209379D02*
X117130Y204381D01*
X116146Y203365D01*
X114147Y203333D01*
X113132Y204317D01*
X113051Y209315D01*
X111068Y208283D02*
X110053Y209267D01*
X108054Y209234D01*
X107070Y208219D01*
X107086Y207219D01*
X108102Y206236D01*
X109101Y206252D01*
X108102Y206236D01*
X107118Y205220D01*
X107134Y204221D01*
X108150Y203237D01*
X110149Y203269D01*
X111133Y204285D01*
X130900Y164100D02*
Y170098D01*
X127901D01*
X126901Y169098D01*
Y167099D01*
X127901Y166099D01*
X130900D01*
X128901D02*
X126901Y164100D01*
X120903Y170098D02*
X124902D01*
Y167099D01*
X122903Y168099D01*
X121903D01*
X120903Y167099D01*
Y165100D01*
X121903Y164100D01*
X123902D01*
X124902Y165100D01*
X128598Y83099D02*
Y78101D01*
X127599Y77101D01*
X125599D01*
X124600Y78101D01*
Y83099D01*
X118602D02*
X120601Y82099D01*
X122600Y80100D01*
Y78101D01*
X121601Y77101D01*
X119601D01*
X118602Y78101D01*
Y79100D01*
X119601Y80100D01*
X122600D01*
X187400Y151700D02*
Y157698D01*
X184401D01*
X183401Y156698D01*
Y154699D01*
X184401Y153699D01*
X187400D01*
X185401D02*
X183401Y151700D01*
X181402D02*
X179403D01*
X180402D01*
Y157698D01*
X181402Y156698D01*
X172405Y157698D02*
X176404D01*
Y154699D01*
X174404Y155699D01*
X173405D01*
X172405Y154699D01*
Y152700D01*
X173405Y151700D01*
X175404D01*
X176404Y152700D01*
X128500Y110500D02*
Y116498D01*
X125501D01*
X124501Y115498D01*
Y113499D01*
X125501Y112499D01*
X128500D01*
X126501D02*
X124501Y110500D01*
X122502D02*
X120503D01*
X121502D01*
Y116498D01*
X122502Y115498D01*
X117504D02*
X116504Y116498D01*
X114505D01*
X113505Y115498D01*
Y111500D01*
X114505Y110500D01*
X116504D01*
X117504Y111500D01*
Y115498D01*
X110100Y110700D02*
Y116698D01*
X107101D01*
X106101Y115698D01*
Y113699D01*
X107101Y112699D01*
X110100D01*
X108101D02*
X106101Y110700D01*
X104102Y111700D02*
X103102Y110700D01*
X101103D01*
X100103Y111700D01*
Y115698D01*
X101103Y116698D01*
X103102D01*
X104102Y115698D01*
Y114699D01*
X103102Y113699D01*
X100103D01*
X92100Y110200D02*
Y116198D01*
X89101D01*
X88101Y115198D01*
Y113199D01*
X89101Y112199D01*
X92100D01*
X90101D02*
X88101Y110200D01*
X86102Y115198D02*
X85102Y116198D01*
X83103D01*
X82103Y115198D01*
Y114199D01*
X83103Y113199D01*
X82103Y112199D01*
Y111200D01*
X83103Y110200D01*
X85102D01*
X86102Y111200D01*
Y112199D01*
X85102Y113199D01*
X86102Y114199D01*
Y115198D01*
X85102Y113199D02*
X83103D01*
X92600Y164500D02*
Y170498D01*
X89601D01*
X88601Y169498D01*
Y167499D01*
X89601Y166499D01*
X92600D01*
X90601D02*
X88601Y164500D01*
X86602Y170498D02*
X82603D01*
Y169498D01*
X86602Y165500D01*
Y164500D01*
X112100Y164300D02*
Y170298D01*
X109101D01*
X108101Y169298D01*
Y167299D01*
X109101Y166299D01*
X112100D01*
X110101D02*
X108101Y164300D01*
X102103Y170298D02*
X104103Y169298D01*
X106102Y167299D01*
Y165300D01*
X105102Y164300D01*
X103103D01*
X102103Y165300D01*
Y166299D01*
X103103Y167299D01*
X106102D01*
X314700Y349998D02*
Y345000D01*
X313700Y344000D01*
X311701D01*
X310701Y345000D01*
Y349998D01*
X308702Y344000D02*
X306703D01*
X307702D01*
Y349998D01*
X308702Y348998D01*
D14*
X78440Y198813D02*
Y212987D01*
X70960D02*
X78440D01*
X70960Y198813D02*
X78440D01*
X70960D02*
Y212987D01*
X119512Y57615D02*
Y62961D01*
X158488D01*
Y57615D02*
Y62961D01*
X119512Y57615D02*
X158488D01*
X119012Y202961D02*
X157988D01*
X119012Y197615D02*
Y202961D01*
Y197615D02*
X157988D01*
Y202961D01*
X171760Y134176D02*
X179240D01*
X171760D02*
Y148350D01*
X179240Y134176D02*
Y148350D01*
X171760D02*
X179240D01*
X114913Y99660D02*
Y107140D01*
X129087D01*
X114913Y99660D02*
X129087D01*
Y107140D01*
X96513Y99860D02*
Y107340D01*
X110687D01*
X96513Y99860D02*
X110687D01*
Y107340D01*
X78513Y99360D02*
Y106840D01*
X92687D01*
X78513Y99360D02*
X92687D01*
Y106840D01*
X47200Y14600D02*
X67200D01*
X47200Y214600D02*
X67200D01*
X47200Y14600D02*
Y214600D01*
X67200Y14600D02*
Y214600D01*
X287200Y14600D02*
X307200D01*
X287200Y214600D02*
X307200D01*
X287200Y14600D02*
Y214600D01*
X307200Y14600D02*
Y214600D01*
X131524Y153260D02*
Y160740D01*
X117350Y153260D02*
X131524D01*
X117350Y160740D02*
X131524D01*
X117350Y153260D02*
Y160740D01*
X98513Y153460D02*
Y160940D01*
X112687D01*
X98513Y153460D02*
X112687D01*
Y160940D01*
X78987Y153660D02*
Y161140D01*
X93161D01*
X78987Y153660D02*
X93161D01*
Y161140D01*
M02*
