M48
;Layer_Color=9474304
;FILE_FORMAT=2:5
INCH,LZ
;TYPE=PLATED
T01F00S00C0.01575
T02F00S00C0.03543
T03F00S00C0.03740
T04F00S00C0.04331
T05F00S00C0.13780
%
T01
X00851Y00171
X0090747Y0027701
X00902Y00331
X00972Y00325
X01155Y00368
X0120119Y0028619
X01175Y00254
X01172Y00211
X01366Y00171
X01416Y0021935
X01464Y00254
X01518Y00289
X01517Y004
X01466Y00404
X01415
X01366Y00405
X01316Y004
X01596Y00411
X01651Y00366
X01935Y00208
X01853Y00695
X0115Y0067
X009Y00602
X00803Y00546
X007Y00551
X02348Y00799
X02528Y00887
X0258901Y0112799
X02243Y01001
X0201999Y0112799
X01924Y01324
X01933Y01528
X01569Y01535
X01416Y01566
X01463Y01763
X0151Y01795
X01561Y01781
X01639Y02093
X01557Y02201
X01177Y02222
X00997Y02218
X01021Y0202123
X0092263Y0201963
X00845Y021093
X00752Y02158
X01446Y0102
X01391Y00835
X01566Y0079
X01577Y01137
X01782Y01052
X01511Y02295
X01461Y02347
X01411Y02372
X00842Y02406
X00752Y02369
X00776Y02295
X02973Y02279
T02
X00817Y0091513
X00917
X01017
X01117
X01217
Y01211
X01117
X01017
X00917
X00817
X00821Y0146213
X00921
X01021
X01121
X01221
Y01758
X01121
X01021
X00921
X00821
T03
X02418Y0038458
Y0058143
T04
X00522Y00196
Y00296
Y00396
Y00496
Y00596
Y00696
X00622
Y00596
Y00496
Y00396
Y00296
Y00196
X02922
Y00296
Y00396
Y00496
Y00596
Y00696
X03022
Y00596
Y00496
Y00396
Y00296
Y00196
Y00796
Y00896
Y00996
Y01096
Y01196
Y01296
Y01396
Y01496
Y01596
Y01696
Y01796
Y01896
Y01996
Y02096
X02922
Y01996
Y01896
Y01796
Y01696
Y01596
Y01496
Y01396
Y01296
Y01196
Y01096
Y00996
Y00896
Y00796
X02689Y01209
Y01309
Y01409
Y01509
Y01609
Y01709
Y01809
Y01909
Y02009
Y02109
Y02209
X02089Y02209
Y02109
Y02009
Y01909
Y01809
Y01709
Y01609
Y01509
Y01409
Y01309
Y01209
X00622Y01196
Y01296
Y01396
Y01496
Y01596
Y01696
Y01796
Y01896
Y01996
Y02096
Y01096
Y00996
Y00896
Y00796
X00522
Y00896
Y00996
Y01096
Y01196
Y01296
Y01396
Y01496
Y01596
Y01696
Y01796
Y01896
Y01996
Y02096
X02089Y02309
X02689Y02309
T05
X002Y002
X0335
Y021
X002
M30
